<?xml version="1.0" encoding="UTF-8" standalone="no"?>
<!-- Created with Inkscape (http://www.inkscape.org/) -->

<svg
   width="12.683104mm"
   height="10.535738mm"
   viewBox="0 0 12.683103 10.535738"
   version="1.1"
   id="svg5"
   xml:space="preserve"
   inkscape:version="1.2.2 (b0a8486541, 2022-12-01)"
   sodipodi:docname="butterfly.svg"
   inkscape:export-filename="toxic_butterfly/0.png"
   inkscape:export-xdpi="96"
   inkscape:export-ydpi="96"
   xmlns:inkscape="http://www.inkscape.org/namespaces/inkscape"
   xmlns:sodipodi="http://sodipodi.sourceforge.net/DTD/sodipodi-0.dtd"
   xmlns="http://www.w3.org/2000/svg"
   xmlns:svg="http://www.w3.org/2000/svg"><sodipodi:namedview
     id="namedview7"
     pagecolor="#ffffff"
     bordercolor="#000000"
     borderopacity="0.25"
     inkscape:showpageshadow="2"
     inkscape:pageopacity="0.0"
     inkscape:pagecheckerboard="0"
     inkscape:deskcolor="#d1d1d1"
     inkscape:document-units="mm"
     showgrid="false"
     inkscape:zoom="3.0874393"
     inkscape:cx="91.661722"
     inkscape:cy="73.847606"
     inkscape:window-width="1920"
     inkscape:window-height="1011"
     inkscape:window-x="0"
     inkscape:window-y="0"
     inkscape:window-maximized="1"
     inkscape:current-layer="layer1"><inkscape:page
       x="0"
       y="0"
       width="12.683104"
       height="10.535739"
       id="page547" /><inkscape:page
       x="15.395534"
       y="-0.15557629"
       width="12.683105"
       height="10.535739"
       id="page549" /><inkscape:page
       x="30.752123"
       y="0.030189821"
       width="12.683109"
       height="10.535738"
       id="page670" /><inkscape:page
       x="0.74618536"
       y="13.385627"
       width="12.683104"
       height="10.535738"
       id="page1211" /><inkscape:page
       x="16.14172"
       y="13.23005"
       width="12.683105"
       height="10.53574"
       id="page1213" /><inkscape:page
       x="31.498308"
       y="13.415816"
       width="12.683105"
       height="10.535738"
       id="page1215" /><inkscape:page
       x="0.37602639"
       y="27.236263"
       width="12.683105"
       height="10.53573"
       id="page1217" /><inkscape:page
       x="15.771561"
       y="27.080687"
       width="12.683105"
       height="10.535739"
       id="page1219" /><inkscape:page
       x="31.128149"
       y="27.266453"
       width="12.683105"
       height="10.535738"
       id="page1221" /><inkscape:page
       x="0.18530239"
       y="39.893539"
       width="12.683105"
       height="10.535733"
       id="page1223" /><inkscape:page
       x="15.580837"
       y="39.737965"
       width="12.683105"
       height="10.53574"
       id="page1225" /><inkscape:page
       x="30.937426"
       y="39.923729"
       width="12.683105"
       height="10.535738"
       id="page1227" /><inkscape:page
       x="1.0979244"
       y="53.202602"
       width="12.683104"
       height="10.535739"
       id="page1231" /><inkscape:page
       x="16.493458"
       y="53.047028"
       width="12.683105"
       height="10.535739"
       id="page1233" /><inkscape:page
       x="31.112766"
       y="53.253098"
       width="12.683105"
       height="10.535739"
       id="page1304" /></sodipodi:namedview><defs
     id="defs2" /><g
     inkscape:label="1"
     inkscape:groupmode="layer"
     id="layer1"
     transform="translate(-37.577101,109.18259)"
     style="display:inline"><path
       style="fill:#008000;stroke-width:0.0131725"
       d="m 43.37299,-99.70065 v -0.5269 h -0.526899 -0.526899 v -0.79035 -0.79035 h 0.263449 0.26345 v -0.26345 -0.26345 h 0.26345 0.263449 v -0.26344 -0.26345 h 0.263449 0.26345 v 0.26345 0.26344 h 0.263449 0.26345 v 0.26345 0.26345 h 0.26345 0.263449 v 1.31725 1.317249 H 44.163338 43.37299 Z m 0.526899,-1.5807 v -1.0538 h -0.26345 -0.263449 v 1.0538 1.0538 h 0.263449 0.26345 z"
       id="path328" /><path
       style="fill:#00ff00;stroke-width:0.0131725"
       d="m 40.211596,-101.80825 v -0.5269 h -0.526899 -0.526899 v -0.52689 -0.5269 h 0.526899 0.526899 v -0.26345 -0.26345 h 0.26345 0.263449 v -0.26345 -0.26345 h 0.790349 0.790348 v 0.26345 0.26345 h 0.526899 0.526899 v 0.26345 0.26345 h -0.263449 -0.26345 v 0.26345 0.26345 h -0.26345 -0.263449 v 0.26345 0.26344 h -0.26345 -0.263449 v 0.26345 0.26345 h -0.263449 -0.26345 v 0.26345 0.26345 h -0.526899 -0.526899 z m 0.526899,-0.79034 v -0.26345 h 0.263449 0.26345 v -0.26345 -0.26345 h 0.526899 0.526899 v -0.26345 -0.26345 h -0.526899 -0.526899 v 0.26345 0.26345 h -0.26345 -0.263449 v 0.26345 0.26345 h -0.263449 -0.26345 v 0.26345 0.26344 h 0.26345 0.263449 z"
       id="path326" /><path
       style="fill:#000000;stroke-width:0.0131725"
       d="m 42.846091,-98.910302 v -0.263449 h -0.26345 -0.263449 v -0.26345 -0.263449 h -0.26345 -0.263449 v -0.5269 -0.5269 h -2.107596 -2.107596 v -1.0538 -1.05379 h 0.26345 0.263449 v -0.26345 -0.26345 h 0.26345 0.263449 v -0.26345 -0.26345 h 0.526899 0.526899 v -0.26345 -0.26345 h 0.526899 0.526899 v -0.26345 -0.26345 h 0.526899 0.526899 v -0.5269 -0.5269 h 0.263449 0.26345 v -0.26345 -0.26345 h -0.26345 -0.263449 v -0.26345 -0.26345 h -0.263449 -0.26345 v -0.26345 -0.26344 h 0.26345 0.263449 v 0.26344 0.26345 h 0.263449 0.26345 v 0.26345 0.26345 h 0.263449 0.26345 v 0.26345 0.26345 h 0.26345 0.263449 v 0.5269 0.5269 h 0.526899 0.526899 v 0.26345 0.26345 h 0.26345 0.263449 v 0.79035 0.79035 h 0.263449 0.26345 v 0.26345 0.26344 h 0.263449 0.26345 v 0.26345 0.26345 h 0.263449 0.26345 v 0.26345 0.26345 h 0.263449 0.26345 v 0.26345 0.26345 h 0.263449 0.26345 v 0.26345 0.26345 h 0.263449 0.26345 v 0.5269 0.526899 h -0.526899 -0.526899 v -0.26345 -0.263449 h -0.26345 -0.263449 v -0.26345 -0.26345 h -0.26345 -0.263449 v -0.26345 -0.26345 h -0.26345 -0.263449 v -0.26345 -0.26345 h -0.26345 -0.263449 v -0.26345 -0.26345 h -0.263449 -0.26345 v -0.26345 -0.26345 h -0.26345 -0.263449 v 1.0538 1.0538 h -0.26345 -0.263449 v 0.5269 0.526899 h 0.790348 0.790349 v 0.263449 0.26345 h -1.053798 -1.053798 z m 0.526899,-2.371048 v -1.0538 h 0.263449 0.26345 v -0.26344 -0.26345 h -0.26345 -0.263449 v 0.26345 0.26344 h -0.263449 -0.26345 v 0.26345 0.26345 h -0.26345 -0.263449 v 0.79035 0.79035 h 0.526899 0.526899 z m -4.215192,-0.26345 v -0.26345 h -0.263449 -0.26345 v -0.26345 -0.26345 H 38.36745 38.104 v 0.5269 0.5269 h 0.526899 0.526899 z m 2.107596,0 v -0.26345 h 0.26345 0.263449 v -0.26345 -0.26345 h 0.263449 0.26345 v -0.26344 -0.26345 h 0.263449 0.26345 v -0.26345 -0.26345 h 0.26345 0.263449 v -0.26345 -0.26345 h -0.526899 -0.526899 v -0.26345 -0.26345 h -0.790348 -0.790349 v 0.26345 0.26345 h -0.263449 -0.26345 v 0.26345 0.26345 h -0.526899 -0.526899 v 0.5269 0.52689 h 0.526899 0.526899 v 0.5269 0.5269 h 0.526899 0.526899 z m -1.053798,-1.05379 v -0.26345 h 0.26345 0.263449 v -0.26345 -0.26345 h 0.263449 0.26345 v -0.26345 -0.26345 h 0.526899 0.526899 v 0.26345 0.26345 h -0.526899 -0.526899 v 0.26345 0.26345 h -0.26345 -0.263449 v 0.26345 0.26344 h -0.263449 -0.26345 z"
       id="path324" /></g><g
     inkscape:groupmode="layer"
     id="layer2"
     inkscape:label="0"
     style="display:inline"
     transform="translate(2.3639052,2.8198727)"><path
       style="fill:#008000;stroke-width:0.0131725"
       d="M 22.55334,4.1376872 V 3.8742377 h -0.263449 -0.26345 V 3.6107882 3.3473387 h -0.26345 -0.263449 V 3.0838892 2.8204398 h 0.263449 0.26345 V 2.5569903 2.2935408 h 0.26345 0.263449 V 2.0300913 1.7666418 h 0.790348 0.790349 v 0.526899 0.526899 h 0.526899 0.526899 V 3.6107882 4.4011367 H 23.870587 22.55334 Z m 1.580697,-1.053798 V 2.8204398 h -1.053798 -1.053798 v 0.2634494 0.2634495 h 1.053798 1.053798 z"
       id="path266-5" /><path
       style="fill:#00ff00;stroke-width:0.0131725"
       d="M 20.445744,2.5569903 V 1.7666418 h -0.26345 -0.263449 V 0.97629333 0.18594487 h 0.263449 0.26345 v -0.26344951 -0.26344945 h 0.26345 0.263449 v -0.52689901 -0.526899 h 0.526899 0.526899 v 0.526899 0.52689901 h 0.526899 0.526899 V 0.18594487 0.71284384 H 22.816789 22.55334 V 0.97629333 1.2397428 h -0.263449 -0.26345 v 0.2634495 0.2634495 h -0.26345 -0.263449 v 0.2634495 0.2634495 h -0.26345 -0.263449 v 0.526899 0.5268989 h -0.263449 -0.26345 z M 20.972643,1.2397428 V 0.71284384 h 0.263449 0.26345 V 0.44939437 0.18594487 h 0.263449 0.26345 v -0.26344951 -0.26344945 h -0.26345 -0.263449 v 0.26344945 0.26344951 h -0.26345 -0.263449 v 0.2634495 0.26344947 h -0.263449 -0.26345 v 0.52689896 0.526899 h 0.26345 0.263449 z"
       id="path264-6" /><path
       style="fill:#000000;stroke-width:0.0131725"
       d="M 22.55334,6.7721822 V 6.5087326 h -0.263449 -0.26345 V 6.2452829 5.9818336 h -0.26345 -0.263449 V 5.7183841 5.4549346 h -0.26345 -0.263449 V 5.1914852 4.9280357 h -0.263449 -0.26345 V 4.6645861 4.4011367 h -0.26345 -0.263449 V 4.1376872 3.8742377 h -0.26345 -0.263449 V 3.6107882 3.3473387 h -0.263449 -0.26345 V 2.8204398 2.2935408 h -0.26345 -0.263449 V 2.0300913 1.7666418 h -0.263449 -0.26345 V 1.5031923 1.2397428 H 17.5478 17.28435 V 0.71284384 0.18594487 h 0.26345 0.263449 V -0.07750464 -0.34095409 H 17.5478 17.28435 v -0.2634495 -0.26344951 h -0.263449 -0.26345 v -0.2634495 -0.2634495 h 0.26345 0.263449 v 0.2634495 0.2634495 h 0.26345 0.263449 v 0.26344951 0.2634495 h 0.26345 0.263449 v 0.26344945 0.26344951 h 0.263449 0.26345 V 0.71284384 1.2397428 h 0.26345 0.263449 V 0.71284384 0.18594487 h 0.263449 0.26345 V -0.34095409 -0.8678531 h 0.263449 0.26345 v -0.526899 -0.5268989 h 0.26345 0.263449 V -2.1851005 -2.44855 h 0.263449 0.26345 V -2.7119995 -2.975449 h 1.053798 1.053798 v 2.1075959 2.1075959 h 0.526899 0.526899 v 0.2634495 0.2634495 h 0.263449 0.26345 v 0.2634495 0.2634495 h 0.263449 0.26345 v 1.0537979 1.053798 h -0.26345 -0.263449 V 3.6107882 2.8204398 h -0.526899 -0.526899 v 0.2634494 0.2634495 h -1.053798 -1.053798 v 0.2634495 0.2634495 h -0.26345 -0.263449 v 0.2634495 0.2634495 h 0.263449 0.26345 v 0.2634494 0.2634496 h 0.26345 0.263449 v 0.2634495 0.2634494 h 0.263449 0.26345 v 0.2634495 0.2634495 h 0.263449 0.26345 v 0.526899 0.5268988 H 23.080239 22.55334 Z M 20.972643,2.8204398 v -0.526899 h 0.263449 0.26345 V 2.0300913 1.7666418 h 0.263449 0.26345 V 1.5031923 1.2397428 h 0.26345 0.263449 V 0.97629333 0.71284384 h 0.263449 0.26345 V 0.18594487 -0.34095409 H 22.55334 22.026441 v -0.52689901 -0.526899 h -0.526899 -0.526899 v 0.526899 0.52689901 h -0.263449 -0.26345 v 0.26344945 0.26344951 h -0.26345 -0.263449 V 0.97629333 1.7666418 h 0.263449 0.26345 v 0.7903485 0.7903484 h 0.26345 0.263449 z M 20.445744,1.2397428 V 0.71284384 h 0.26345 0.263449 V 0.44939437 0.18594487 h 0.263449 0.26345 v -0.26344951 -0.26344945 h 0.263449 0.26345 v 0.26344945 0.26344951 h -0.26345 -0.263449 v 0.2634495 0.26344947 h -0.26345 -0.263449 v 0.52689896 0.526899 h -0.263449 -0.26345 z m 1.580697,1.8441464 V 2.8204398 h 1.053798 1.053798 V 2.2935408 1.7666418 H 23.343688 22.55334 v 0.2634495 0.2634495 h -0.263449 -0.26345 v 0.2634495 0.2634495 h -0.26345 -0.263449 v 0.2634494 0.2634495 h 0.263449 0.26345 z M 23.080239,-1.921651 V -2.44855 H 22.55334 22.026441 v 0.2634495 0.2634495 h 0.26345 0.263449 v 0.2634494 0.2634495 h 0.263449 0.26345 z"
       id="path262-2" /><path
       style="fill:#008000;stroke-width:0.0131725"
       d="M 34.184107,6.6922567 V 6.1653578 H 33.657208 33.130309 V 5.3750093 4.5846608 h 0.263449 0.26345 V 4.3212113 4.0577618 h 0.26345 0.263449 V 3.7943124 3.5308629 h 0.263449 0.26345 v 0.2634495 0.2634494 h 0.263449 0.26345 v 0.2634495 0.2634495 h 0.26345 0.263449 v 1.3172474 1.3172475 h -0.790349 -0.790348 z m 0.526899,-1.5806969 v -1.053798 h -0.26345 -0.263449 v 1.053798 1.053798 h 0.263449 0.26345 z"
       id="path328-1" /><path
       style="fill:#00ff00;stroke-width:0.0131725"
       d="M 31.022713,4.5846608 V 4.0577618 H 30.495814 29.968915 V 3.5308629 3.0039639 h 0.526899 0.526899 V 2.7405144 2.4770649 h 0.26345 0.263449 V 2.2136154 1.9501659 h 0.790349 0.790348 v 0.2634495 0.2634495 h 0.526899 0.526899 v 0.2634495 0.2634495 h -0.263449 -0.26345 v 0.2634494 0.2634496 h -0.26345 -0.263449 v 0.2634495 0.2634494 h -0.26345 -0.263449 v 0.2634495 0.2634495 h -0.263449 -0.26345 V 4.8481103 5.1115598 H 31.549612 31.022713 Z M 31.549612,3.7943124 V 3.5308629 h 0.263449 0.26345 V 3.2674133 3.0039639 h 0.526899 0.526899 V 2.7405144 2.4770649 H 32.60341 32.076511 v 0.2634495 0.2634495 h -0.26345 -0.263449 v 0.2634494 0.2634496 h -0.263449 -0.26345 v 0.2634495 0.2634494 h 0.26345 0.263449 z"
       id="path326-2" /><path
       style="fill:#000000;stroke-width:0.0131725"
       d="M 33.657208,7.4826052 V 7.2191557 h -0.26345 -0.263449 V 6.9557062 6.6922567 H 32.866859 32.60341 V 6.1653578 5.6384587 H 30.495814 28.388218 V 4.5846608 3.5308629 h 0.26345 0.263449 V 3.2674133 3.0039639 h 0.26345 0.263449 V 2.7405144 2.4770649 h 0.526899 0.526899 V 2.2136154 1.9501659 h 0.526899 0.526899 V 1.6867164 1.423267 h 0.526899 0.526899 V 0.89636796 0.369469 h 0.263449 0.26345 V 0.10601949 -0.15742996 h -0.26345 -0.263449 v -0.2634495 -0.26344951 h -0.263449 -0.26345 V -0.94777842 -1.2112279 h 0.26345 0.263449 v 0.26344948 0.26344945 h 0.263449 0.26345 v 0.26344951 0.2634495 h 0.263449 0.26345 V 0.10601949 0.369469 h 0.26345 0.263449 V 0.89636796 1.423267 h 0.526899 0.526899 v 0.2634494 0.2634495 h 0.26345 0.263449 v 0.7903485 0.7903485 h 0.263449 0.26345 v 0.2634495 0.2634494 h 0.263449 0.26345 v 0.2634495 0.2634495 h 0.263449 0.26345 v 0.2634495 0.2634495 h 0.263449 0.26345 v 0.2634495 0.2634494 h 0.263449 0.26345 v 0.2634495 0.2634496 h 0.263449 0.26345 v 0.5268989 0.526899 H 38.399299 37.8724 V 6.9557062 6.6922567 H 37.60895 37.345501 V 6.4288072 6.1653578 h -0.26345 -0.263449 V 5.9019082 5.6384587 h -0.26345 -0.263449 V 5.3750093 5.1115598 h -0.26345 -0.263449 V 4.8481103 4.5846608 h -0.263449 -0.26345 V 4.3212113 4.0577618 h -0.26345 -0.263449 v 1.053798 1.053798 h -0.26345 -0.263449 v 0.5268989 0.526899 h 0.790348 0.790349 v 0.2634495 0.2634496 h -1.053798 -1.053798 z m 0.526899,-2.3710454 v -1.053798 h 0.263449 0.26345 V 3.7943124 3.5308629 h -0.26345 -0.263449 v 0.2634495 0.2634494 h -0.263449 -0.26345 v 0.2634495 0.2634495 h -0.26345 -0.263449 v 0.7903485 0.7903485 h 0.526899 0.526899 z M 29.968915,4.8481103 V 4.5846608 h -0.263449 -0.26345 V 4.3212113 4.0577618 h -0.263449 -0.26345 v 0.526899 0.526899 h 0.526899 0.526899 z m 2.107596,0 V 4.5846608 h 0.26345 0.263449 V 4.3212113 4.0577618 h 0.263449 0.26345 V 3.7943124 3.5308629 h 0.263449 0.26345 V 3.2674133 3.0039639 h 0.26345 0.263449 V 2.7405144 2.4770649 H 33.657208 33.130309 V 2.2136154 1.9501659 h -0.790348 -0.790349 v 0.2634495 0.2634495 h -0.263449 -0.26345 v 0.2634495 0.2634495 h -0.526899 -0.526899 v 0.526899 0.5268989 h 0.526899 0.526899 v 0.526899 0.526899 h 0.526899 0.526899 z M 31.022713,3.7943124 V 3.5308629 h 0.26345 0.263449 V 3.2674133 3.0039639 h 0.263449 0.26345 V 2.7405144 2.4770649 h 0.526899 0.526899 V 2.7405144 3.0039639 H 32.60341 32.076511 v 0.2634494 0.2634496 h -0.26345 -0.263449 v 0.2634495 0.2634494 h -0.263449 -0.26345 z"
       id="path324-7" /><path
       style="fill:#008000;stroke-width:0.0131725"
       d="M 37.909929,4.3234533 V 4.0600038 H 37.64648 37.38303 V 3.7965543 3.5331048 H 37.11958 36.856131 V 3.2696553 3.0062059 h 0.263449 0.26345 V 2.7427564 2.4793069 h 0.26345 0.263449 V 2.2158574 1.9524079 h 0.790348 0.790349 v 0.526899 0.526899 h 0.526899 0.526899 v 0.7903484 0.7903485 h -1.317248 -1.317247 z m 1.580697,-1.053798 V 3.0062059 H 38.436828 37.38303 v 0.2634494 0.2634495 h 1.053798 1.053798 z"
       id="path266-9" /><path
       style="fill:#00ff00;stroke-width:0.0131725"
       d="M 35.802333,2.7427564 V 1.9524079 h -0.26345 -0.263449 V 1.1620594 0.37171097 h 0.263449 0.26345 V 0.10826146 -0.15518799 h 0.26345 0.263449 V -0.682087 -1.208986 h 0.526899 0.526899 v 0.526899 0.52689901 h 0.526899 0.526899 v 0.52689896 0.52689897 h -0.26345 -0.263449 V 1.1620594 1.4255089 H 37.64648 37.38303 v 0.2634495 0.2634495 h -0.26345 -0.263449 v 0.2634495 0.2634495 h -0.26345 -0.263449 v 0.526899 0.5268989 h -0.263449 -0.26345 z M 36.329232,1.4255089 V 0.89860994 h 0.263449 0.26345 V 0.63516047 0.37171097 h 0.263449 0.26345 V 0.10826146 -0.15518799 h -0.26345 -0.263449 v 0.26344945 0.26344951 h -0.26345 -0.263449 v 0.2634495 0.26344947 h -0.263449 -0.26345 v 0.52689896 0.526899 h 0.26345 0.263449 z"
       id="path264-3" /><path
       style="fill:#000000;stroke-width:0.0131725"
       d="M 37.909929,6.9579483 V 6.6944987 H 37.64648 37.38303 V 6.431049 6.1675997 H 37.11958 36.856131 V 5.9041502 5.6407007 h -0.26345 -0.263449 V 5.3772513 5.1138018 h -0.263449 -0.26345 V 4.8503522 4.5869028 h -0.26345 -0.263449 V 4.3234533 4.0600038 h -0.26345 -0.263449 V 3.7965543 3.5331048 h -0.263449 -0.26345 V 3.0062059 2.4793069 h -0.26345 -0.263449 V 2.2158574 1.9524079 h -0.263449 -0.26345 V 1.6889584 1.4255089 h -0.263449 -0.26345 V 0.89860994 0.37171097 h 0.26345 0.263449 V 0.10826146 -0.15518799 h -0.263449 -0.26345 V -0.41863749 -0.682087 H 32.37749 32.11404 V -0.94553645 -1.208986 h 0.26345 0.263449 v 0.26344955 0.26344945 h 0.26345 0.263449 v 0.26344951 0.2634495 h 0.26345 0.263449 v 0.26344945 0.26344951 h 0.263449 0.26345 V 0.89860994 1.4255089 h 0.26345 0.263449 V 0.89860994 0.37171097 h 0.263449 0.26345 V -0.15518799 -0.682087 h 0.263449 0.26345 v -0.526899 -0.5268989 h 0.26345 0.263449 v -0.2634495 -0.2634495 h 0.263449 0.26345 v -0.2634495 -0.2634495 h 1.053798 1.053798 v 2.1075959 2.1075959 h 0.526899 0.526899 v 0.2634495 0.2634495 h 0.263449 0.26345 v 0.2634495 0.2634495 h 0.263449 0.26345 v 1.0537979 1.053798 h -0.26345 -0.263449 V 3.7965543 3.0062059 H 40.017525 39.490626 V 3.2696553 3.5331048 H 38.436828 37.38303 v 0.2634495 0.2634495 h -0.26345 -0.263449 v 0.2634495 0.2634495 h 0.263449 0.26345 v 0.2634494 0.2634496 h 0.26345 0.263449 v 0.2634495 0.2634494 h 0.263449 0.26345 v 0.2634495 0.2634495 h 0.263449 0.26345 v 0.526899 0.5268988 H 38.436828 37.909929 Z M 36.329232,3.0062059 v -0.526899 h 0.263449 0.26345 V 2.2158574 1.9524079 h 0.263449 0.26345 V 1.6889584 1.4255089 h 0.26345 0.263449 V 1.1620594 0.89860994 h 0.263449 0.26345 V 0.37171097 -0.15518799 H 37.909929 37.38303 V -0.682087 -1.208986 h -0.526899 -0.526899 v 0.526899 0.52689901 h -0.263449 -0.26345 v 0.26344945 0.26344951 h -0.26345 -0.263449 V 1.1620594 1.9524079 h 0.263449 0.26345 v 0.7903485 0.7903484 h 0.26345 0.263449 z M 35.802333,1.4255089 V 0.89860994 h 0.26345 0.263449 V 0.63516047 0.37171097 h 0.263449 0.26345 V 0.10826146 -0.15518799 h 0.263449 0.26345 v 0.26344945 0.26344951 h -0.26345 -0.263449 v 0.2634495 0.26344947 h -0.26345 -0.263449 v 0.52689896 0.526899 h -0.263449 -0.26345 z M 37.38303,3.2696553 V 3.0062059 h 1.053798 1.053798 V 2.4793069 1.9524079 H 38.700277 37.909929 V 2.2158574 2.4793069 H 37.64648 37.38303 v 0.2634495 0.2634495 h -0.26345 -0.263449 v 0.2634494 0.2634495 h 0.263449 0.26345 z m 1.053798,-5.0055402 v -0.526899 H 37.909929 37.38303 v 0.2634495 0.2634495 h 0.26345 0.263449 v 0.2634494 0.2634495 h 0.263449 0.26345 z"
       id="path262-6" /><path
       style="fill:#0000ff;stroke-width:0.0131725"
       d="M 4.1781687,20.047693 V 19.520794 H 3.6512699 3.1243711 v -0.790349 -0.790348 h 0.2634492 0.2634496 v -0.26345 -0.263449 h 0.2634497 0.2634491 v -0.26345 -0.263449 H 4.4416184 4.705068 v 0.263449 0.26345 h 0.2634492 0.2634497 v 0.263449 0.26345 h 0.2634496 0.2634492 v 1.317247 1.317248 H 4.9685172 4.1781687 Z M 4.705068,18.466996 V 17.413198 H 4.4416184 4.1781687 v 1.053798 1.053798 H 4.4416184 4.705068 Z"
       id="path328-62" /><path
       style="fill:#00ffff;stroke-width:0.0131725"
       d="M 1.0167751,17.940097 V 17.413198 H 0.48987613 -0.03702288 V 16.886299 16.3594 H 0.48987613 1.0167751 v -0.26345 -0.263449 h 0.2634495 0.2634496 v -0.26345 -0.263449 h 0.7903485 0.7903484 v 0.263449 0.26345 H 3.6512699 4.1781687 V 16.09595 16.3594 H 3.9147196 3.6512699 v 0.263449 0.26345 H 3.3878203 3.1243711 v 0.263449 0.26345 H 2.8609215 2.5974718 v 0.263449 0.26345 H 2.3340227 2.070573 v 0.263449 0.26345 H 1.5436742 1.0167751 Z M 1.5436742,17.149748 V 16.886299 H 1.8071234 2.070573 V 16.622849 16.3594 H 2.5974718 3.1243711 V 16.09595 15.832501 H 2.5974718 2.070573 V 16.09595 16.3594 H 1.8071234 1.5436742 v 0.263449 0.26345 H 1.2802246 1.0167751 v 0.263449 0.26345 h 0.2634495 0.2634496 z"
       id="path326-6" /><path
       style="fill:#000000;stroke-width:0.0131725"
       d="M 3.6512699,20.838041 V 20.574592 H 3.3878203 3.1243711 v -0.26345 -0.263449 H 2.8609215 2.5974718 V 19.520794 18.993895 H 0.48987613 -1.6177198 v -1.053798 -1.053798 h 0.2634495 0.2634495 V 16.622849 16.3594 h 0.26344945 0.26344951 v -0.26345 -0.263449 h 0.52689896 0.52689901 v -0.26345 -0.263449 H 1.0167751 1.5436742 v -0.26345 -0.263449 H 2.070573 2.5974718 v -0.526899 -0.526899 h 0.2634497 0.2634496 v -0.26345 -0.263449 H 2.8609215 2.5974718 v -0.263449 -0.26345 H 2.3340227 2.070573 v -0.263449 -0.26345 h 0.2634497 0.2634491 v 0.26345 0.263449 h 0.2634497 0.2634496 v 0.26345 0.263449 h 0.2634492 0.2634496 v 0.263449 0.26345 h 0.2634497 0.2634491 v 0.526899 0.526899 H 4.705068 5.2319669 v 0.263449 0.26345 h 0.2634496 0.2634492 v 0.790348 0.790349 H 6.0223153 6.285765 v 0.263449 0.26345 h 0.2634491 0.2634497 v 0.263449 0.26345 h 0.2634496 0.2634492 v 0.263449 0.26345 h 0.2634497 0.2634496 v 0.263449 0.26345 h 0.2634492 0.2634496 v 0.263449 0.26345 h 0.2634497 0.2634491 v 0.526899 0.526899 H 8.3933607 7.8664619 v -0.26345 -0.263449 H 7.6030123 7.3395626 v -0.26345 -0.263449 H 7.0761134 6.8126638 v -0.26345 -0.263449 H 6.5492141 6.285765 v -0.26345 -0.263449 H 6.0223153 5.7588657 v -0.26345 -0.263449 H 5.4954165 5.2319669 v -0.26345 -0.263449 H 4.9685172 4.705068 v 1.053798 1.053798 H 4.4416184 4.1781687 v 0.526899 0.526899 h 0.7903485 0.7903485 v 0.263449 0.26345 H 4.705068 3.6512699 Z M 4.1781687,18.466996 V 17.413198 H 4.4416184 4.705068 v -0.26345 -0.263449 H 4.4416184 4.1781687 v 0.263449 0.26345 H 3.9147196 3.6512699 v 0.263449 0.26345 H 3.3878203 3.1243711 v 0.790348 0.790349 h 0.5268988 0.5268988 z m -4.21519158,-0.26345 v -0.263449 h -0.26344946 -0.2634495 v -0.26345 -0.263449 H -0.82737135 -1.0908208 v 0.526899 0.526899 h 0.52689896 0.52689896 z m 2.10759588,0 v -0.263449 h 0.2634497 0.2634491 v -0.26345 -0.263449 h 0.2634497 0.2634496 v -0.26345 -0.263449 H 3.3878203 3.6512699 V 16.622849 16.3594 H 3.9147196 4.1781687 V 16.09595 15.832501 H 3.6512699 3.1243711 v -0.26345 -0.263449 H 2.3340227 1.5436742 v 0.263449 0.26345 H 1.2802246 1.0167751 V 16.09595 16.3594 H 0.48987613 -0.03702288 v 0.526899 0.526899 H 0.48987613 1.0167751 v 0.526899 0.526899 H 1.5436742 2.070573 Z M 1.0167751,17.149748 V 16.886299 H 1.2802246 1.5436742 V 16.622849 16.3594 H 1.8071234 2.070573 V 16.09595 15.832501 H 2.5974718 3.1243711 V 16.09595 16.3594 H 2.5974718 2.070573 v 0.263449 0.26345 H 1.8071234 1.5436742 v 0.263449 0.26345 H 1.2802246 1.0167751 Z"
       id="path324-1" /><path
       style="fill:#0000ff;stroke-width:0.0131725"
       d="m 23.299525,17.523313 v -0.263449 h -0.263449 -0.26345 v -0.26345 -0.263449 h -0.26345 -0.263449 v -0.26345 -0.263449 h 0.263449 0.26345 v -0.26345 -0.263449 h 0.26345 0.263449 v -0.26345 -0.263449 h 0.790348 0.790349 v 0.526899 0.526899 h 0.526899 0.526899 v 0.790348 0.790349 h -1.317248 -1.317247 z m 1.580697,-1.053798 v -0.263449 h -1.053798 -1.053798 v 0.263449 0.26345 h 1.053798 1.053798 z"
       id="path266-5-2" /><path
       style="fill:#00ffff;stroke-width:0.0131725"
       d="m 21.191929,15.942616 v -0.790348 h -0.26345 -0.263449 v -0.790349 -0.790348 h 0.263449 0.26345 v -0.26345 -0.263449 h 0.26345 0.263449 v -0.526899 -0.526899 h 0.526899 0.526899 v 0.526899 0.526899 h 0.526899 0.526899 v 0.526899 0.526899 h -0.26345 -0.263449 v 0.263449 0.26345 h -0.263449 -0.26345 v 0.263449 0.26345 h -0.26345 -0.263449 v 0.263449 0.26345 h -0.26345 -0.263449 v 0.526899 0.526899 h -0.263449 -0.26345 z m 0.526899,-1.317247 V 14.09847 h 0.263449 0.26345 v -0.26345 -0.263449 h 0.263449 0.26345 v -0.26345 -0.263449 h -0.26345 -0.263449 v 0.263449 0.26345 h -0.26345 -0.263449 v 0.263449 0.26345 h -0.263449 -0.26345 v 0.526899 0.526899 h 0.26345 0.263449 z"
       id="path264-6-2" /><path
       style="fill:#000000;stroke-width:0.0131725"
       d="m 23.299525,20.157808 v -0.263449 h -0.263449 -0.26345 v -0.26345 -0.263449 h -0.26345 -0.263449 v -0.26345 -0.263449 h -0.26345 -0.263449 v -0.26345 -0.263449 h -0.263449 -0.26345 v -0.26345 -0.263449 h -0.26345 -0.263449 v -0.26345 -0.263449 h -0.26345 -0.263449 v -0.26345 -0.263449 h -0.263449 -0.26345 v -0.526899 -0.526899 h -0.26345 -0.263449 v -0.26345 -0.263449 h -0.263449 -0.26345 v -0.26345 -0.263449 h -0.263449 -0.26345 V 14.09847 13.571571 h 0.26345 0.263449 v -0.26345 -0.263449 h -0.263449 -0.26345 v -0.26345 -0.263449 h -0.263449 -0.26345 v -0.26345 -0.263449 h 0.26345 0.263449 v 0.263449 0.26345 h 0.26345 0.263449 v 0.263449 0.26345 h 0.26345 0.263449 v 0.263449 0.26345 h 0.263449 0.26345 v 0.526899 0.526899 h 0.26345 0.263449 V 14.09847 13.571571 h 0.263449 0.26345 v -0.526899 -0.526899 h 0.263449 0.26345 v -0.526899 -0.526899 h 0.26345 0.263449 v -0.26345 -0.263449 h 0.263449 0.26345 v -0.263449 -0.26345 h 1.053798 1.053798 v 2.107596 2.107596 h 0.526899 0.526899 v 0.263449 0.26345 h 0.263449 0.26345 v 0.263449 0.26345 h 0.263449 0.26345 v 1.053798 1.053798 h -0.26345 -0.263449 v -0.790349 -0.790348 h -0.526899 -0.526899 v 0.263449 0.26345 h -1.053798 -1.053798 v 0.263449 0.26345 h -0.26345 -0.263449 v 0.263449 0.26345 h 0.263449 0.26345 v 0.263449 0.26345 h 0.26345 0.263449 v 0.263449 0.26345 h 0.263449 0.26345 v 0.263449 0.26345 h 0.263449 0.26345 v 0.526899 0.526898 h -0.526899 -0.526899 z m -1.580697,-3.951742 v -0.526899 h 0.263449 0.26345 v -0.26345 -0.263449 h 0.263449 0.26345 v -0.26345 -0.263449 h 0.26345 0.263449 v -0.26345 -0.263449 h 0.263449 0.26345 v -0.526899 -0.526899 h -0.526899 -0.526899 v -0.526899 -0.526899 h -0.526899 -0.526899 v 0.526899 0.526899 h -0.263449 -0.26345 v 0.263449 0.26345 h -0.26345 -0.263449 v 0.790348 0.790349 h 0.263449 0.26345 v 0.790348 0.790349 h 0.26345 0.263449 z M 21.191929,14.625369 V 14.09847 h 0.26345 0.263449 v -0.26345 -0.263449 h 0.263449 0.26345 v -0.26345 -0.263449 h 0.263449 0.26345 v 0.263449 0.26345 h -0.26345 -0.263449 v 0.263449 0.26345 h -0.26345 -0.263449 v 0.526899 0.526899 h -0.263449 -0.26345 z m 1.580697,1.844146 v -0.263449 h 1.053798 1.053798 v -0.526899 -0.526899 h -0.790349 -0.790348 v 0.263449 0.26345 h -0.263449 -0.26345 v 0.263449 0.26345 h -0.26345 -0.263449 v 0.263449 0.26345 h 0.263449 0.26345 z m 1.053798,-5.00554 v -0.526899 h -0.526899 -0.526899 v 0.263449 0.26345 h 0.26345 0.263449 v 0.263449 0.26345 h 0.263449 0.26345 z"
       id="path262-2-8" /><path
       style="fill:#0000ff;stroke-width:0.0131725"
       d="m 34.930292,20.077883 v -0.526899 h -0.526899 -0.526899 v -0.790349 -0.790348 h 0.263449 0.26345 v -0.26345 -0.263449 h 0.26345 0.263449 v -0.26345 -0.263449 h 0.263449 0.26345 v 0.263449 0.26345 h 0.263449 0.26345 v 0.263449 0.26345 h 0.26345 0.263449 v 1.317247 1.317248 H 35.72064 34.930292 Z m 0.526899,-1.580697 v -1.053798 h -0.26345 -0.263449 v 1.053798 1.053798 h 0.263449 0.26345 z"
       id="path328-1-7" /><path
       style="fill:#00ffff;stroke-width:0.0131725"
       d="M 31.768898,17.970287 V 17.443388 H 31.241999 30.7151 V 16.916489 16.38959 h 0.526899 0.526899 v -0.26345 -0.263449 h 0.26345 0.263449 v -0.26345 -0.263449 h 0.790349 0.790348 v 0.263449 0.26345 h 0.526899 0.526899 v 0.263449 0.26345 h -0.263449 -0.26345 v 0.263449 0.26345 h -0.26345 -0.263449 v 0.263449 0.26345 h -0.26345 -0.263449 v 0.263449 0.26345 h -0.263449 -0.26345 v 0.263449 0.26345 h -0.526899 -0.526899 z m 0.526899,-0.790349 v -0.263449 h 0.263449 0.26345 v -0.26345 -0.263449 h 0.526899 0.526899 v -0.26345 -0.263449 h -0.526899 -0.526899 v 0.263449 0.26345 h -0.26345 -0.263449 v 0.263449 0.26345 h -0.263449 -0.26345 v 0.263449 0.26345 h 0.26345 0.263449 z"
       id="path326-2-3" /><path
       style="fill:#000000;stroke-width:0.0131725"
       d="m 34.403393,20.868231 v -0.263449 h -0.26345 -0.263449 v -0.26345 -0.263449 h -0.26345 -0.263449 v -0.526899 -0.526899 h -2.107596 -2.107596 v -1.053798 -1.053798 h 0.26345 0.263449 v -0.26345 -0.263449 h 0.26345 0.263449 v -0.26345 -0.263449 h 0.526899 0.526899 v -0.26345 -0.263449 h 0.526899 0.526899 v -0.26345 -0.263449 h 0.526899 0.526899 v -0.526899 -0.526899 h 0.263449 0.26345 v -0.26345 -0.263449 h -0.26345 -0.263449 v -0.263449 -0.26345 h -0.263449 -0.26345 v -0.263449 -0.26345 h 0.26345 0.263449 v 0.26345 0.263449 h 0.263449 0.26345 v 0.26345 0.263449 h 0.263449 0.26345 v 0.263449 0.26345 h 0.26345 0.263449 v 0.526899 0.526899 h 0.526899 0.526899 v 0.263449 0.26345 h 0.26345 0.263449 v 0.790348 0.790349 h 0.263449 0.26345 v 0.263449 0.26345 h 0.263449 0.26345 v 0.263449 0.26345 h 0.263449 0.26345 v 0.263449 0.26345 h 0.263449 0.26345 v 0.263449 0.26345 h 0.263449 0.26345 v 0.263449 0.26345 h 0.263449 0.26345 v 0.526899 0.526899 h -0.526899 -0.526899 v -0.26345 -0.263449 h -0.26345 -0.263449 v -0.26345 -0.263449 h -0.26345 -0.263449 v -0.26345 -0.263449 h -0.26345 -0.263449 v -0.26345 -0.263449 h -0.26345 -0.263449 v -0.26345 -0.263449 H 36.24754 35.98409 v -0.26345 -0.263449 h -0.26345 -0.263449 v 1.053798 1.053798 h -0.26345 -0.263449 v 0.526899 0.526899 h 0.790348 0.790349 v 0.263449 0.26345 h -1.053798 -1.053798 z m 0.526899,-2.371045 v -1.053798 h 0.263449 0.26345 v -0.26345 -0.263449 h -0.26345 -0.263449 v 0.263449 0.26345 h -0.263449 -0.26345 v 0.263449 0.26345 h -0.26345 -0.263449 v 0.790348 0.790349 h 0.526899 0.526899 z M 30.7151,18.233736 v -0.263449 h -0.263449 -0.26345 v -0.26345 -0.263449 h -0.263449 -0.26345 v 0.526899 0.526899 h 0.526899 0.526899 z m 2.107596,0 v -0.263449 h 0.26345 0.263449 v -0.26345 -0.263449 h 0.263449 0.26345 v -0.26345 -0.263449 h 0.263449 0.26345 v -0.26345 -0.263449 h 0.26345 0.263449 v -0.26345 -0.263449 h -0.526899 -0.526899 v -0.26345 -0.263449 h -0.790348 -0.790349 v 0.263449 0.26345 h -0.263449 -0.26345 v 0.263449 0.26345 H 31.241999 30.7151 v 0.526899 0.526899 h 0.526899 0.526899 v 0.526899 0.526899 h 0.526899 0.526899 z m -1.053798,-1.053798 v -0.263449 h 0.26345 0.263449 v -0.26345 -0.263449 h 0.263449 0.26345 v -0.26345 -0.263449 h 0.526899 0.526899 v 0.263449 0.26345 h -0.526899 -0.526899 v 0.263449 0.26345 h -0.26345 -0.263449 v 0.263449 0.26345 h -0.263449 -0.26345 z"
       id="path324-7-6" /><path
       style="fill:#0000ff;stroke-width:0.0131725"
       d="M 38.656114,17.709079 V 17.44563 h -0.263449 -0.26345 v -0.26345 -0.263449 h -0.26345 -0.263449 v -0.26345 -0.263449 h 0.263449 0.26345 v -0.26345 -0.263449 h 0.26345 0.263449 v -0.26345 -0.263449 h 0.790348 0.790349 v 0.526899 0.526899 h 0.526899 0.526899 v 0.790348 0.790349 h -1.317248 -1.317247 z m 1.580697,-1.053798 v -0.263449 h -1.053798 -1.053798 v 0.263449 0.26345 h 1.053798 1.053798 z"
       id="path266-9-2" /><path
       style="fill:#00ffff;stroke-width:0.0131725"
       d="m 36.548518,16.128382 v -0.790348 h -0.26345 -0.263449 v -0.790349 -0.790348 h 0.263449 0.26345 v -0.26345 -0.263449 h 0.26345 0.263449 V 12.703539 12.17664 h 0.526899 0.526899 v 0.526899 0.526899 h 0.526899 0.526899 v 0.526899 0.526899 h -0.26345 -0.263449 v 0.263449 0.26345 h -0.263449 -0.26345 v 0.263449 0.26345 h -0.26345 -0.263449 v 0.263449 0.26345 h -0.26345 -0.263449 v 0.526899 0.526899 h -0.263449 -0.26345 z m 0.526899,-1.317247 v -0.526899 h 0.263449 0.26345 v -0.26345 -0.263449 h 0.263449 0.26345 v -0.26345 -0.263449 h -0.26345 -0.263449 v 0.263449 0.26345 h -0.26345 -0.263449 v 0.263449 0.26345 h -0.263449 -0.26345 v 0.526899 0.526899 h 0.26345 0.263449 z"
       id="path264-3-9" /><path
       style="fill:#000000;stroke-width:0.0131725"
       d="m 38.656114,20.343574 v -0.263449 h -0.263449 -0.26345 v -0.26345 -0.263449 h -0.26345 -0.263449 v -0.26345 -0.263449 h -0.26345 -0.263449 v -0.26345 -0.263449 h -0.263449 -0.26345 v -0.26345 -0.263449 h -0.26345 -0.263449 v -0.26345 -0.263449 h -0.26345 -0.263449 v -0.26345 -0.263449 h -0.263449 -0.26345 v -0.526899 -0.526899 h -0.26345 -0.263449 v -0.26345 -0.263449 h -0.263449 -0.26345 v -0.26345 -0.263449 h -0.263449 -0.26345 v -0.526899 -0.526899 h 0.26345 0.263449 v -0.26345 -0.263449 h -0.263449 -0.26345 v -0.26345 -0.263449 h -0.263449 -0.26345 v -0.26345 -0.263449 h 0.26345 0.263449 v 0.263449 0.26345 h 0.26345 0.263449 v 0.263449 0.26345 h 0.26345 0.263449 v 0.263449 0.26345 h 0.263449 0.26345 v 0.526899 0.526899 h 0.26345 0.263449 v -0.526899 -0.526899 h 0.263449 0.26345 v -0.526899 -0.526899 h 0.263449 0.26345 V 12.17664 11.649741 h 0.26345 0.263449 v -0.26345 -0.263449 h 0.263449 0.26345 v -0.263449 -0.26345 h 1.053798 1.053798 v 2.107596 2.107596 h 0.526899 0.526899 v 0.263449 0.26345 h 0.263449 0.26345 v 0.263449 0.26345 h 0.263449 0.26345 v 1.053798 1.053798 h -0.26345 -0.263449 V 17.18218 16.391832 H 40.76371 40.236811 v 0.263449 0.26345 h -1.053798 -1.053798 v 0.263449 0.26345 h -0.26345 -0.263449 v 0.263449 0.26345 h 0.263449 0.26345 v 0.263449 0.26345 h 0.26345 0.263449 v 0.263449 0.26345 h 0.263449 0.26345 v 0.263449 0.26345 h 0.263449 0.26345 v 0.526899 0.526898 h -0.526899 -0.526899 z m -1.580697,-3.951742 v -0.526899 h 0.263449 0.26345 v -0.26345 -0.263449 h 0.263449 0.26345 v -0.26345 -0.263449 h 0.26345 0.263449 v -0.26345 -0.263449 h 0.263449 0.26345 V 13.757337 13.230438 H 38.656114 38.129215 V 12.703539 12.17664 h -0.526899 -0.526899 v 0.526899 0.526899 h -0.263449 -0.26345 v 0.263449 0.26345 h -0.26345 -0.263449 v 0.790348 0.790349 h 0.263449 0.26345 v 0.790348 0.790349 h 0.26345 0.263449 z m -0.526899,-1.580697 v -0.526899 h 0.26345 0.263449 v -0.26345 -0.263449 h 0.263449 0.26345 v -0.26345 -0.263449 h 0.263449 0.26345 v 0.263449 0.26345 h -0.26345 -0.263449 v 0.263449 0.26345 h -0.26345 -0.263449 v 0.526899 0.526899 h -0.263449 -0.26345 z m 1.580697,1.844146 v -0.263449 h 1.053798 1.053798 v -0.526899 -0.526899 h -0.790349 -0.790348 v 0.263449 0.26345 h -0.263449 -0.26345 v 0.263449 0.26345 h -0.26345 -0.263449 v 0.263449 0.26345 h 0.263449 0.26345 z m 1.053798,-5.00554 v -0.526899 h -0.526899 -0.526899 v 0.263449 0.26345 h 0.26345 0.263449 v 0.263449 0.26345 h 0.263449 0.26345 z"
       id="path262-6-3" /><path
       style="fill:#d45500;stroke-width:0.0131725"
       d="M 3.8080097,33.898321 V 33.371422 H 3.2811109 2.7542121 v -0.790349 -0.790348 h 0.2634492 0.2634496 v -0.26345 -0.263449 h 0.2634497 0.2634491 v -0.26345 -0.263449 H 4.0714594 4.334909 v 0.263449 0.26345 h 0.2634492 0.2634497 v 0.263449 0.26345 h 0.2634496 0.2634492 v 1.317247 1.317248 H 4.5983582 3.8080097 Z M 4.334909,32.317624 V 31.263826 H 4.0714594 3.8080097 v 1.053798 1.053798 H 4.0714594 4.334909 Z"
       id="path328-9" /><path
       style="fill:#ff9955;stroke-width:0.0131725"
       d="M 0.64661609,31.790725 V 31.263826 H 0.11971713 -0.40718188 v -0.526899 -0.526899 h 0.52689901 0.52689896 v -0.26345 -0.263449 h 0.2634495 0.26344961 v -0.26345 -0.263449 h 0.7903485 0.7903484 v 0.263449 0.26345 h 0.5268988 0.5268988 v 0.263449 0.26345 H 3.5445606 3.2811109 v 0.263449 0.26345 H 3.0176613 2.7542121 v 0.263449 0.26345 H 2.4907625 2.2273128 v 0.263449 0.26345 H 1.9638637 1.700414 v 0.263449 0.26345 H 1.1735152 0.64661609 Z M 1.1735152,31.000376 V 30.736927 H 1.4369644 1.700414 v -0.26345 -0.263449 h 0.5268988 0.5268993 v -0.26345 -0.263449 H 2.2273128 1.700414 v 0.263449 0.26345 H 1.4369644 1.1735152 v 0.263449 0.26345 H 0.91006559 0.64661609 v 0.263449 0.26345 h 0.2634495 0.26344961 z"
       id="path326-4" /><path
       style="fill:#000000;stroke-width:0.0131725"
       d="M 3.2811109,34.688669 V 34.42522 H 3.0176613 2.7542121 V 34.16177 33.898321 H 2.4907625 2.2273128 V 33.371422 32.844523 H 0.11971713 -1.9878788 v -1.053798 -1.053798 h 0.2634495 0.2634495 v -0.26345 -0.263449 h 0.2634495 0.26344946 v -0.26345 -0.263449 h 0.52689896 0.52689901 V 29.419679 29.15623 H 0.64661609 1.1735152 V 28.89278 28.629331 H 1.700414 2.2273128 v -0.526899 -0.526899 h 0.2634497 0.2634496 v -0.26345 -0.263449 H 2.4907625 2.2273128 v -0.263449 -0.26345 H 1.9638637 1.700414 v -0.263449 -0.26345 h 0.2634497 0.2634491 v 0.26345 0.263449 h 0.2634497 0.2634496 v 0.26345 0.263449 h 0.2634492 0.2634496 v 0.263449 0.26345 h 0.2634497 0.2634491 v 0.526899 0.526899 H 4.334909 4.8618079 v 0.263449 0.26345 h 0.2634496 0.2634492 v 0.790348 0.790349 H 5.6521563 5.915606 v 0.263449 0.26345 h 0.2634491 0.2634497 v 0.263449 0.26345 h 0.2634496 0.2634492 v 0.263449 0.26345 h 0.2634497 0.2634496 v 0.263449 0.26345 h 0.2634492 0.2634496 v 0.263449 0.26345 h 0.2634497 0.2634491 v 0.526899 0.526899 H 8.0232017 7.4963029 V 34.16177 33.898321 H 7.2328533 6.9694036 v -0.26345 -0.263449 H 6.7059544 6.4425048 v -0.26345 -0.263449 H 6.1790551 5.915606 v -0.26345 -0.263449 H 5.6521563 5.3887067 v -0.26345 -0.263449 H 5.1252575 4.8618079 v -0.26345 -0.263449 H 4.5983582 4.334909 v 1.053798 1.053798 H 4.0714594 3.8080097 v 0.526899 0.526899 h 0.7903485 0.7903485 v 0.263449 0.26345 H 4.334909 3.2811109 Z M 3.8080097,32.317624 V 31.263826 H 4.0714594 4.334909 v -0.26345 -0.263449 H 4.0714594 3.8080097 v 0.263449 0.26345 H 3.5445606 3.2811109 v 0.263449 0.26345 H 3.0176613 2.7542121 v 0.790348 0.790349 h 0.5268988 0.5268988 z m -4.21519158,-0.26345 v -0.263449 h -0.26344946 -0.2634495 v -0.26345 -0.263449 H -1.1975303 -1.4609798 v 0.526899 0.526899 h 0.52689896 0.52689896 z m 2.10759588,0 v -0.263449 h 0.2634497 0.2634491 v -0.26345 -0.263449 h 0.2634497 0.2634496 v -0.26345 -0.263449 h 0.2634492 0.2634496 v -0.26345 -0.263449 h 0.2634497 0.2634491 v -0.26345 -0.263449 H 3.2811109 2.7542121 V 29.419679 29.15623 H 1.9638637 1.1735152 v 0.263449 0.26345 H 0.91006559 0.64661609 v 0.263449 0.26345 H 0.11971713 -0.40718188 v 0.526899 0.526899 h 0.52689901 0.52689896 v 0.526899 0.526899 H 1.1735152 1.700414 Z M 0.64661609,31.000376 v -0.263449 h 0.2634495 0.26344961 v -0.26345 -0.263449 H 1.4369644 1.700414 v -0.26345 -0.263449 h 0.5268988 0.5268993 v 0.263449 0.26345 H 2.2273128 1.700414 v 0.263449 0.26345 H 1.4369644 1.1735152 v 0.263449 0.26345 H 0.91006559 0.64661609 Z"
       id="path324-78" /><path
       style="fill:#d45500;stroke-width:0.0131725"
       d="M 22.929367,31.373949 V 31.1105 h -0.263449 -0.26345 v -0.26345 -0.263449 h -0.26345 -0.263449 v -0.26345 -0.263449 h 0.263449 0.26345 v -0.26345 -0.263449 h 0.26345 0.263449 v -0.26345 -0.263449 h 0.790348 0.790349 v 0.526899 0.526899 h 0.526899 0.526899 v 0.790348 0.790349 h -1.317248 -1.317247 z m 1.580697,-1.053798 v -0.263449 h -1.053798 -1.053798 v 0.263449 0.26345 h 1.053798 1.053798 z"
       id="path266-5-6" /><path
       style="fill:#ff9955;stroke-width:0.0131725"
       d="m 20.821771,29.793252 v -0.790348 h -0.26345 -0.263449 v -0.790349 -0.790348 h 0.263449 0.26345 v -0.26345 -0.263449 h 0.26345 0.263449 V 26.368409 25.84151 h 0.526899 0.526899 v 0.526899 0.526899 h 0.526899 0.526899 v 0.526899 0.526899 h -0.26345 -0.263449 v 0.263449 0.26345 h -0.263449 -0.26345 v 0.263449 0.26345 h -0.26345 -0.263449 v 0.263449 0.26345 h -0.26345 -0.263449 v 0.526899 0.526899 h -0.263449 -0.26345 z m 0.526899,-1.317247 v -0.526899 h 0.263449 0.26345 v -0.26345 -0.263449 h 0.263449 0.26345 v -0.26345 -0.263449 h -0.26345 -0.263449 v 0.263449 0.26345 h -0.26345 -0.263449 v 0.263449 0.26345 h -0.263449 -0.26345 v 0.526899 0.526899 h 0.26345 0.263449 z"
       id="path264-6-1" /><path
       style="fill:#000000;stroke-width:0.0131725"
       d="m 22.929367,34.008444 v -0.263449 h -0.263449 -0.26345 v -0.26345 -0.263449 h -0.26345 -0.263449 v -0.26345 -0.263449 h -0.26345 -0.263449 v -0.26345 -0.263449 h -0.263449 -0.26345 v -0.26345 -0.263449 h -0.26345 -0.263449 V 31.373949 31.1105 h -0.26345 -0.263449 v -0.26345 -0.263449 h -0.263449 -0.26345 v -0.526899 -0.526899 h -0.26345 -0.263449 v -0.26345 -0.263449 h -0.263449 -0.26345 v -0.26345 -0.263449 h -0.263449 -0.26345 v -0.526899 -0.526899 h 0.26345 0.263449 v -0.26345 -0.263449 h -0.263449 -0.26345 v -0.26345 -0.263449 h -0.263449 -0.26345 v -0.26345 -0.263449 h 0.26345 0.263449 v 0.263449 0.26345 h 0.26345 0.263449 v 0.263449 0.26345 h 0.26345 0.263449 v 0.263449 0.26345 h 0.263449 0.26345 v 0.526899 0.526899 h 0.26345 0.263449 v -0.526899 -0.526899 h 0.263449 0.26345 v -0.526899 -0.526899 h 0.263449 0.26345 V 25.84151 25.314611 h 0.26345 0.263449 v -0.26345 -0.263449 h 0.263449 0.26345 v -0.263449 -0.26345 h 1.053798 1.053798 v 2.107596 2.107596 h 0.526899 0.526899 v 0.263449 0.26345 h 0.263449 0.26345 v 0.263449 0.26345 h 0.263449 0.26345 v 1.053798 1.053798 h -0.26345 -0.263449 V 30.84705 30.056702 h -0.526899 -0.526899 v 0.263449 0.26345 h -1.053798 -1.053798 v 0.263449 0.26345 h -0.26345 -0.263449 v 0.263449 0.26345 h 0.263449 0.26345 v 0.263449 0.26345 h 0.26345 0.263449 v 0.263449 0.26345 h 0.263449 0.26345 v 0.263449 0.26345 h 0.263449 0.26345 v 0.526899 0.526898 H 23.456266 22.929367 Z M 21.34867,30.056702 v -0.526899 h 0.263449 0.26345 v -0.26345 -0.263449 h 0.263449 0.26345 v -0.26345 -0.263449 h 0.26345 0.263449 v -0.26345 -0.263449 h 0.263449 0.26345 V 27.422207 26.895308 H 22.929367 22.402468 V 26.368409 25.84151 H 21.875569 21.34867 v 0.526899 0.526899 h -0.263449 -0.26345 v 0.263449 0.26345 h -0.26345 -0.263449 v 0.790348 0.790349 h 0.263449 0.26345 v 0.790348 0.790349 h 0.26345 0.263449 z m -0.526899,-1.580697 v -0.526899 h 0.26345 0.263449 v -0.26345 -0.263449 h 0.263449 0.26345 v -0.26345 -0.263449 h 0.263449 0.26345 v 0.263449 0.26345 h -0.26345 -0.263449 v 0.263449 0.26345 h -0.26345 -0.263449 v 0.526899 0.526899 h -0.263449 -0.26345 z m 1.580697,1.844146 v -0.263449 h 1.053798 1.053798 v -0.526899 -0.526899 h -0.790349 -0.790348 v 0.263449 0.26345 h -0.263449 -0.26345 v 0.263449 0.26345 h -0.26345 -0.263449 v 0.263449 0.26345 h 0.263449 0.26345 z m 1.053798,-5.00554 v -0.526899 h -0.526899 -0.526899 v 0.263449 0.26345 h 0.26345 0.263449 v 0.263449 0.26345 h 0.263449 0.26345 z"
       id="path262-2-5" /><path
       style="fill:#d45500;stroke-width:0.0131725"
       d="M 34.560134,33.928519 V 33.40162 h -0.526899 -0.526899 v -0.790349 -0.790348 h 0.263449 0.26345 v -0.26345 -0.263449 h 0.26345 0.263449 v -0.26345 -0.263449 h 0.263449 0.26345 v 0.263449 0.26345 h 0.263449 0.26345 v 0.263449 0.26345 h 0.26345 0.263449 v 1.317247 1.317248 h -0.790349 -0.790348 z m 0.526899,-1.580697 v -1.053798 h -0.26345 -0.263449 v 1.053798 1.053798 h 0.263449 0.26345 z"
       id="path328-1-4" /><path
       style="fill:#ff9955;stroke-width:0.0131725"
       d="m 31.39874,31.820923 v -0.526899 h -0.526899 -0.526899 v -0.526899 -0.526899 h 0.526899 0.526899 v -0.26345 -0.263449 h 0.26345 0.263449 v -0.26345 -0.263449 h 0.790349 0.790348 v 0.263449 0.26345 h 0.526899 0.526899 v 0.263449 0.26345 h -0.263449 -0.26345 v 0.263449 0.26345 h -0.26345 -0.263449 v 0.263449 0.26345 h -0.26345 -0.263449 v 0.263449 0.26345 h -0.263449 -0.26345 v 0.263449 0.26345 H 31.925639 31.39874 Z m 0.526899,-0.790349 v -0.263449 h 0.263449 0.26345 v -0.26345 -0.263449 h 0.526899 0.526899 v -0.26345 -0.263449 h -0.526899 -0.526899 v 0.263449 0.26345 h -0.26345 -0.263449 v 0.263449 0.26345 H 31.66219 31.39874 v 0.263449 0.26345 h 0.26345 0.263449 z"
       id="path326-2-7" /><path
       style="fill:#000000;stroke-width:0.0131725"
       d="m 34.033235,34.718867 v -0.263449 h -0.26345 -0.263449 v -0.26345 -0.263449 h -0.26345 -0.263449 V 33.40162 32.874721 h -2.107596 -2.107596 v -1.053798 -1.053798 h 0.26345 0.263449 v -0.26345 -0.263449 h 0.26345 0.263449 v -0.26345 -0.263449 h 0.526899 0.526899 v -0.26345 -0.263449 h 0.526899 0.526899 v -0.26345 -0.263449 h 0.526899 0.526899 V 28.13263 27.605731 h 0.263449 0.26345 v -0.26345 -0.263449 h -0.26345 -0.263449 v -0.263449 -0.26345 h -0.263449 -0.26345 v -0.263449 -0.26345 h 0.26345 0.263449 v 0.26345 0.263449 h 0.263449 0.26345 v 0.26345 0.263449 h 0.263449 0.26345 v 0.263449 0.26345 h 0.26345 0.263449 v 0.526899 0.526899 h 0.526899 0.526899 v 0.263449 0.26345 h 0.26345 0.263449 v 0.790348 0.790349 h 0.263449 0.26345 v 0.263449 0.26345 h 0.263449 0.26345 v 0.263449 0.26345 h 0.263449 0.26345 v 0.263449 0.26345 h 0.263449 0.26345 v 0.263449 0.26345 h 0.263449 0.26345 v 0.263449 0.26345 h 0.263449 0.26345 v 0.526899 0.526899 h -0.526899 -0.526899 v -0.26345 -0.263449 h -0.26345 -0.263449 v -0.26345 -0.263449 h -0.26345 -0.263449 v -0.26345 -0.263449 h -0.26345 -0.263449 v -0.26345 -0.263449 h -0.26345 -0.263449 v -0.26345 -0.263449 h -0.263449 -0.26345 v -0.26345 -0.263449 h -0.26345 -0.263449 v 1.053798 1.053798 h -0.26345 -0.263449 v 0.526899 0.526899 h 0.790348 0.790349 v 0.263449 0.26345 h -1.053798 -1.053798 z m 0.526899,-2.371045 v -1.053798 h 0.263449 0.26345 v -0.26345 -0.263449 h -0.26345 -0.263449 v 0.263449 0.26345 h -0.263449 -0.26345 v 0.263449 0.26345 h -0.26345 -0.263449 v 0.790348 0.790349 h 0.526899 0.526899 z m -4.215192,-0.26345 v -0.263449 h -0.263449 -0.26345 v -0.26345 -0.263449 h -0.263449 -0.26345 v 0.526899 0.526899 h 0.526899 0.526899 z m 2.107596,0 v -0.263449 h 0.26345 0.263449 v -0.26345 -0.263449 h 0.263449 0.26345 v -0.26345 -0.263449 h 0.263449 0.26345 v -0.26345 -0.263449 h 0.26345 0.263449 v -0.26345 -0.263449 h -0.526899 -0.526899 v -0.26345 -0.263449 h -0.790348 -0.790349 v 0.263449 0.26345 H 31.66219 31.39874 v 0.263449 0.26345 h -0.526899 -0.526899 v 0.526899 0.526899 h 0.526899 0.526899 v 0.526899 0.526899 h 0.526899 0.526899 z M 31.39874,31.030574 v -0.263449 h 0.26345 0.263449 v -0.26345 -0.263449 h 0.263449 0.26345 v -0.26345 -0.263449 h 0.526899 0.526899 v 0.263449 0.26345 h -0.526899 -0.526899 v 0.263449 0.26345 h -0.26345 -0.263449 v 0.263449 0.26345 H 31.66219 31.39874 Z"
       id="path324-7-65" /><path
       style="fill:#d45500;stroke-width:0.0131725"
       d="m 38.285956,31.559715 v -0.263449 h -0.263449 -0.26345 v -0.26345 -0.263449 h -0.26345 -0.263449 v -0.26345 -0.263449 h 0.263449 0.26345 v -0.26345 -0.263449 h 0.26345 0.263449 v -0.26345 -0.263449 h 0.790348 0.790349 v 0.526899 0.526899 h 0.526899 0.526899 v 0.790348 0.790349 h -1.317248 -1.317247 z m 1.580697,-1.053798 v -0.263449 h -1.053798 -1.053798 v 0.263449 0.26345 h 1.053798 1.053798 z"
       id="path266-9-9" /><path
       style="fill:#ff9955;stroke-width:0.0131725"
       d="M 36.17836,29.979018 V 29.18867 h -0.26345 -0.263449 v -0.790349 -0.790348 h 0.263449 0.26345 v -0.26345 -0.263449 h 0.26345 0.263449 v -0.526899 -0.526899 h 0.526899 0.526899 v 0.526899 0.526899 h 0.526899 0.526899 v 0.526899 0.526899 h -0.26345 -0.263449 v 0.263449 0.26345 h -0.263449 -0.26345 v 0.263449 0.26345 h -0.26345 -0.263449 v 0.263449 0.26345 h -0.26345 -0.263449 v 0.526899 0.526899 H 36.44181 36.17836 Z m 0.526899,-1.317247 v -0.526899 h 0.263449 0.26345 v -0.26345 -0.263449 h 0.263449 0.26345 v -0.26345 -0.263449 h -0.26345 -0.263449 v 0.263449 0.26345 h -0.26345 -0.263449 v 0.263449 0.26345 H 36.44181 36.17836 v 0.526899 0.526899 h 0.26345 0.263449 z"
       id="path264-3-3" /><path
       style="fill:#000000;stroke-width:0.0131725"
       d="m 38.285956,34.19421 v -0.263449 h -0.263449 -0.26345 v -0.26345 -0.263449 h -0.26345 -0.263449 v -0.26345 -0.263449 h -0.26345 -0.263449 v -0.26345 -0.263449 H 36.44181 36.17836 v -0.26345 -0.263449 h -0.26345 -0.263449 v -0.26345 -0.263449 h -0.26345 -0.263449 v -0.26345 -0.263449 h -0.263449 -0.26345 v -0.526899 -0.526899 h -0.26345 -0.263449 v -0.26345 -0.263449 h -0.263449 -0.26345 v -0.26345 -0.263449 h -0.263449 -0.26345 v -0.526899 -0.526899 h 0.26345 0.263449 v -0.26345 -0.263449 h -0.263449 -0.26345 v -0.26345 -0.263449 h -0.263449 -0.26345 v -0.26345 -0.263449 h 0.26345 0.263449 v 0.263449 0.26345 h 0.26345 0.263449 v 0.263449 0.26345 h 0.26345 0.263449 v 0.263449 0.26345 h 0.263449 0.26345 v 0.526899 0.526899 h 0.26345 0.263449 v -0.526899 -0.526899 h 0.263449 0.26345 v -0.526899 -0.526899 h 0.263449 0.26345 v -0.526899 -0.526899 h 0.26345 0.263449 v -0.26345 -0.263449 h 0.263449 0.26345 v -0.263449 -0.26345 h 1.053798 1.053798 v 2.107596 2.107596 h 0.526899 0.526899 v 0.263449 0.26345 h 0.263449 0.26345 v 0.263449 0.26345 h 0.263449 0.26345 v 1.053798 1.053798 H 41.1839 40.920451 v -0.790349 -0.790348 h -0.526899 -0.526899 v 0.263449 0.26345 h -1.053798 -1.053798 v 0.263449 0.26345 h -0.26345 -0.263449 v 0.263449 0.26345 h 0.263449 0.26345 v 0.263449 0.26345 h 0.26345 0.263449 v 0.263449 0.26345 h 0.263449 0.26345 v 0.263449 0.26345 h 0.263449 0.26345 v 0.526899 0.526898 h -0.526899 -0.526899 z m -1.580697,-3.951742 v -0.526899 h 0.263449 0.26345 v -0.26345 -0.263449 h 0.263449 0.26345 v -0.26345 -0.263449 h 0.26345 0.263449 v -0.26345 -0.263449 h 0.263449 0.26345 v -0.526899 -0.526899 h -0.526899 -0.526899 v -0.526899 -0.526899 h -0.526899 -0.526899 v 0.526899 0.526899 H 36.44181 36.17836 v 0.263449 0.26345 h -0.26345 -0.263449 v 0.790348 0.790349 h 0.263449 0.26345 v 0.790348 0.790349 h 0.26345 0.263449 z M 36.17836,28.661771 v -0.526899 h 0.26345 0.263449 v -0.26345 -0.263449 h 0.263449 0.26345 v -0.26345 -0.263449 h 0.263449 0.26345 v 0.263449 0.26345 h -0.26345 -0.263449 v 0.263449 0.26345 h -0.26345 -0.263449 v 0.526899 0.526899 H 36.44181 36.17836 Z m 1.580697,1.844146 v -0.263449 h 1.053798 1.053798 V 29.715569 29.18867 h -0.790349 -0.790348 v 0.263449 0.26345 h -0.263449 -0.26345 v 0.263449 0.26345 h -0.26345 -0.263449 v 0.263449 0.26345 h 0.263449 0.26345 z m 1.053798,-5.00554 v -0.526899 h -0.526899 -0.526899 v 0.263449 0.26345 h 0.26345 0.263449 v 0.263449 0.26345 h 0.263449 0.26345 z"
       id="path262-6-7" /><path
       style="fill:#aa0000;stroke-width:0.0131725"
       d="M 3.6172857,46.5556 V 46.028701 H 3.0903869 2.5634881 v -0.790349 -0.790348 h 0.2634492 0.2634496 v -0.26345 -0.263449 h 0.2634497 0.2634491 v -0.26345 -0.263449 H 3.8807354 4.144185 v 0.263449 0.26345 h 0.2634492 0.2634497 v 0.263449 0.26345 h 0.2634496 0.2634492 v 1.317247 1.317248 H 4.4076342 3.6172857 Z M 4.144185,44.974903 V 43.921105 H 3.8807354 3.6172857 v 1.053798 1.053798 H 3.8807354 4.144185 Z"
       id="path328-5" /><path
       style="fill:#ff2a2a;stroke-width:0.0131725"
       d="m 0.45589209,44.448004 v -0.526899 h -0.52689896 -0.52689901 v -0.526899 -0.526899 h 0.52689901 0.52689896 v -0.26345 -0.263449 h 0.2634495 0.2634496 v -0.26345 -0.263449 H 1.7731397 2.5634881 v 0.263449 0.26345 h 0.5268988 0.5268988 v 0.263449 0.26345 H 3.3538366 3.0903869 v 0.263449 0.26345 H 2.8269373 2.5634881 v 0.263449 0.26345 H 2.3000385 2.0365888 v 0.263449 0.26345 H 1.7731397 1.50969 v 0.263449 0.26345 H 0.98279119 0.45589209 Z m 0.5268991,-0.790349 V 43.394206 H 1.2462404 1.50969 v -0.26345 -0.263449 h 0.5268988 0.5268993 v -0.26345 -0.263449 H 2.0365888 1.50969 v 0.263449 0.26345 H 1.2462404 0.98279119 v 0.263449 0.26345 h -0.2634496 -0.2634495 v 0.263449 0.26345 h 0.2634495 0.2634496 z"
       id="path326-25" /><path
       style="fill:#000000;stroke-width:0.0131725"
       d="M 3.0903869,47.345948 V 47.082499 H 2.8269373 2.5634881 V 46.819049 46.5556 H 2.3000385 2.0365888 V 46.028701 45.501802 H -0.07100687 -2.1786028 v -1.053798 -1.053798 h 0.2634495 0.2634495 v -0.26345 -0.263449 h 0.2634495 0.2634495 v -0.26345 -0.263449 h 0.52689892 0.52689901 v -0.26345 -0.263449 h 0.52689896 0.5268991 V 41.550059 41.28661 H 1.50969 2.0365888 v -0.526899 -0.526899 h 0.2634497 0.2634496 v -0.26345 -0.263449 H 2.3000385 2.0365888 v -0.263449 -0.26345 H 1.7731397 1.50969 v -0.263449 -0.26345 h 0.2634497 0.2634491 v 0.26345 0.263449 h 0.2634497 0.2634496 v 0.26345 0.263449 h 0.2634492 0.2634496 v 0.263449 0.26345 h 0.2634497 0.2634491 v 0.526899 0.526899 H 4.144185 4.6710839 v 0.263449 0.26345 h 0.2634496 0.2634492 v 0.790348 0.790349 H 5.4614323 5.724882 v 0.263449 0.26345 h 0.2634491 0.2634497 v 0.263449 0.26345 h 0.2634496 0.2634492 v 0.263449 0.26345 h 0.2634497 0.2634496 v 0.263449 0.26345 h 0.2634492 0.2634496 v 0.263449 0.26345 H 8.0959274 8.3593765 V 46.5556 47.082499 H 7.8324777 7.3055789 V 46.819049 46.5556 H 7.0421293 6.7786796 V 46.29215 46.028701 H 6.5152304 6.2517808 v -0.26345 -0.263449 H 5.9883311 5.724882 v -0.26345 -0.263449 H 5.4614323 5.1979827 v -0.26345 -0.263449 H 4.9345335 4.6710839 v -0.26345 -0.263449 H 4.4076342 4.144185 v 1.053798 1.053798 H 3.8807354 3.6172857 v 0.526899 0.526899 h 0.7903485 0.7903485 v 0.263449 0.26345 H 4.144185 3.0903869 Z M 3.6172857,44.974903 V 43.921105 H 3.8807354 4.144185 v -0.26345 -0.263449 H 3.8807354 3.6172857 v 0.263449 0.26345 H 3.3538366 3.0903869 v 0.263449 0.26345 H 2.8269373 2.5634881 v 0.790348 0.790349 h 0.5268988 0.5268988 z m -4.21519158,-0.26345 V 44.448004 H -0.86135534 -1.1248048 v -0.26345 -0.263449 h -0.2634495 -0.2634495 v 0.526899 0.526899 h 0.526899 0.52689892 z m 2.10759588,0 v -0.263449 h 0.2634497 0.2634491 v -0.26345 -0.263449 h 0.2634497 0.2634496 v -0.26345 -0.263449 h 0.2634492 0.2634496 v -0.26345 -0.263449 h 0.2634497 0.2634491 v -0.26345 -0.263449 H 3.0903869 2.5634881 v -0.26345 -0.263449 H 1.7731397 0.98279119 v 0.263449 0.26345 h -0.2634496 -0.2634495 v 0.263449 0.26345 h -0.52689896 -0.52689901 v 0.526899 0.526899 h 0.52689901 0.52689896 v 0.526899 0.526899 H 0.98279119 1.50969 Z M 0.45589209,43.657655 v -0.263449 h 0.2634495 0.2634496 v -0.26345 -0.263449 H 1.2462404 1.50969 v -0.26345 -0.263449 h 0.5268988 0.5268993 v 0.263449 0.26345 H 2.0365888 1.50969 v 0.263449 0.26345 H 1.2462404 0.98279119 v 0.263449 0.26345 h -0.2634496 -0.2634495 z"
       id="path324-4" /><path
       style="fill:#aa0000;stroke-width:0.0131725"
       d="m 22.738643,44.031225 v -0.263449 h -0.263449 -0.26345 v -0.26345 -0.263449 h -0.26345 -0.263449 v -0.26345 -0.263449 h 0.263449 0.26345 v -0.26345 -0.263449 h 0.26345 0.263449 v -0.26345 -0.263449 h 0.790348 0.790349 v 0.526899 0.526899 h 0.526899 0.526899 v 0.790348 0.790349 H 24.05589 22.738643 Z m 1.580697,-1.053798 v -0.263449 h -1.053798 -1.053798 v 0.263449 0.26345 h 1.053798 1.053798 z"
       id="path266-5-4" /><path
       style="fill:#ff2a2a;stroke-width:0.0131725"
       d="M 20.631047,42.450528 V 41.66018 h -0.26345 -0.263449 v -0.790349 -0.790348 h 0.263449 0.26345 v -0.26345 -0.263449 h 0.26345 0.263449 v -0.526899 -0.526899 h 0.526899 0.526899 v 0.526899 0.526899 h 0.526899 0.526899 v 0.526899 0.526899 h -0.26345 -0.263449 v 0.263449 0.26345 h -0.263449 -0.26345 v 0.263449 0.26345 h -0.26345 -0.263449 v 0.263449 0.26345 h -0.26345 -0.263449 v 0.526899 0.526899 h -0.263449 -0.26345 z m 0.526899,-1.317247 v -0.526899 h 0.263449 0.26345 v -0.26345 -0.263449 h 0.263449 0.26345 v -0.26345 -0.263449 h -0.26345 -0.263449 v 0.263449 0.26345 h -0.26345 -0.263449 v 0.263449 0.26345 h -0.263449 -0.26345 v 0.526899 0.526899 h 0.26345 0.263449 z"
       id="path264-6-3" /><path
       style="fill:#000000;stroke-width:0.0131725"
       d="m 22.738643,46.66572 v -0.263449 h -0.263449 -0.26345 v -0.26345 -0.263449 h -0.26345 -0.263449 v -0.26345 -0.263449 h -0.26345 -0.263449 v -0.26345 -0.263449 h -0.263449 -0.26345 v -0.26345 -0.263449 h -0.26345 -0.263449 v -0.26345 -0.263449 h -0.26345 -0.263449 v -0.26345 -0.263449 H 19.3138 19.05035 V 42.713978 42.187079 H 18.7869 18.523451 v -0.26345 -0.263449 h -0.263449 -0.26345 v -0.26345 -0.263449 h -0.263449 -0.26345 v -0.526899 -0.526899 h 0.26345 0.263449 v -0.26345 -0.263449 h -0.263449 -0.26345 v -0.26345 -0.263449 h -0.263449 -0.26345 v -0.26345 -0.263449 h 0.26345 0.263449 v 0.263449 0.26345 h 0.26345 0.263449 v 0.263449 0.26345 h 0.26345 0.263449 v 0.263449 0.26345 h 0.263449 0.26345 v 0.526899 0.526899 h 0.26345 0.263449 v -0.526899 -0.526899 h 0.263449 0.26345 v -0.526899 -0.526899 h 0.263449 0.26345 v -0.526899 -0.526899 h 0.26345 0.263449 v -0.26345 -0.263449 h 0.263449 0.26345 v -0.263449 -0.26345 h 1.053798 1.053798 v 2.107596 2.107596 h 0.526899 0.526899 v 0.263449 0.26345 h 0.263449 0.26345 v 0.263449 0.26345 h 0.263449 0.26345 v 1.053798 1.053798 h -0.26345 -0.263449 V 43.504326 42.713978 H 24.846239 24.31934 v 0.263449 0.26345 h -1.053798 -1.053798 v 0.263449 0.26345 h -0.26345 -0.263449 v 0.263449 0.26345 h 0.263449 0.26345 v 0.263449 0.26345 h 0.26345 0.263449 v 0.263449 0.26345 h 0.263449 0.26345 v 0.263449 0.26345 h 0.263449 0.26345 v 0.526899 0.526898 h -0.526899 -0.526899 z m -1.580697,-3.951742 v -0.526899 h 0.263449 0.26345 v -0.26345 -0.263449 h 0.263449 0.26345 v -0.26345 -0.263449 h 0.26345 0.263449 v -0.26345 -0.263449 h 0.263449 0.26345 v -0.526899 -0.526899 h -0.526899 -0.526899 v -0.526899 -0.526899 h -0.526899 -0.526899 v 0.526899 0.526899 h -0.263449 -0.26345 v 0.263449 0.26345 h -0.26345 -0.263449 v 0.790348 0.790349 h 0.263449 0.26345 v 0.790348 0.790349 h 0.26345 0.263449 z m -0.526899,-1.580697 v -0.526899 h 0.26345 0.263449 v -0.26345 -0.263449 h 0.263449 0.26345 v -0.26345 -0.263449 h 0.263449 0.26345 v 0.263449 0.26345 h -0.26345 -0.263449 v 0.263449 0.26345 h -0.26345 -0.263449 v 0.526899 0.526899 h -0.263449 -0.26345 z m 1.580697,1.844146 v -0.263449 h 1.053798 1.053798 V 42.187079 41.66018 h -0.790349 -0.790348 v 0.263449 0.26345 h -0.263449 -0.26345 v 0.263449 0.26345 h -0.26345 -0.263449 v 0.263449 0.26345 h 0.263449 0.26345 z m 1.053798,-5.00554 v -0.526899 h -0.526899 -0.526899 v 0.263449 0.26345 h 0.26345 0.263449 v 0.263449 0.26345 h 0.263449 0.26345 z"
       id="path262-2-1" /><path
       style="fill:#aa0000;stroke-width:0.0131725"
       d="m 34.36941,46.585795 v -0.526899 h -0.526899 -0.526899 v -0.790349 -0.790348 h 0.263449 0.26345 V 44.214749 43.9513 h 0.26345 0.263449 v -0.26345 -0.263449 h 0.263449 0.26345 v 0.263449 0.26345 h 0.263449 0.26345 v 0.263449 0.26345 h 0.26345 0.263449 v 1.317247 1.317248 H 35.159758 34.36941 Z m 0.526899,-1.580697 V 43.9513 h -0.26345 -0.263449 v 1.053798 1.053798 h 0.263449 0.26345 z"
       id="path328-1-9" /><path
       style="fill:#ff2a2a;stroke-width:0.0131725"
       d="M 31.208016,44.478199 V 43.9513 h -0.526899 -0.526899 v -0.526899 -0.526899 h 0.526899 0.526899 v -0.26345 -0.263449 h 0.26345 0.263449 v -0.26345 -0.263449 h 0.790349 0.790348 v 0.263449 0.26345 h 0.526899 0.526899 v 0.263449 0.26345 h -0.263449 -0.26345 v 0.263449 0.26345 h -0.26345 -0.263449 v 0.263449 0.26345 h -0.26345 -0.263449 v 0.263449 0.26345 h -0.263449 -0.26345 v 0.263449 0.26345 h -0.526899 -0.526899 z m 0.526899,-0.790349 v -0.263449 h 0.263449 0.26345 v -0.26345 -0.263449 h 0.526899 0.526899 v -0.26345 -0.263449 h -0.526899 -0.526899 v 0.263449 0.26345 h -0.26345 -0.263449 v 0.263449 0.26345 h -0.263449 -0.26345 v 0.263449 0.26345 h 0.26345 0.263449 z"
       id="path326-2-2" /><path
       style="fill:#000000;stroke-width:0.0131725"
       d="m 33.842511,47.376143 v -0.263449 h -0.26345 -0.263449 v -0.26345 -0.263449 h -0.26345 -0.263449 v -0.526899 -0.526899 h -2.107596 -2.107596 v -1.053798 -1.053798 h 0.26345 0.263449 v -0.26345 -0.263449 h 0.26345 0.263449 v -0.26345 -0.263449 h 0.526899 0.526899 v -0.26345 -0.263449 h 0.526899 0.526899 v -0.26345 -0.263449 h 0.526899 0.526899 v -0.526899 -0.526899 h 0.263449 0.26345 v -0.26345 -0.263449 h -0.26345 -0.263449 v -0.263449 -0.26345 h -0.263449 -0.26345 V 38.94576 38.68231 h 0.26345 0.263449 v 0.26345 0.263449 h 0.263449 0.26345 v 0.26345 0.263449 h 0.263449 0.26345 v 0.263449 0.26345 h 0.26345 0.263449 v 0.526899 0.526899 h 0.526899 0.526899 v 0.263449 0.26345 h 0.26345 0.263449 v 0.790348 0.790349 h 0.263449 0.26345 v 0.263449 0.26345 h 0.263449 0.26345 v 0.263449 0.26345 h 0.263449 0.26345 v 0.263449 0.26345 h 0.263449 0.26345 v 0.263449 0.26345 h 0.263449 0.26345 v 0.263449 0.26345 h 0.263449 0.26345 v 0.526899 0.526899 h -0.526899 -0.526899 v -0.26345 -0.263449 h -0.26345 -0.263449 v -0.26345 -0.263449 h -0.26345 -0.263449 v -0.26345 -0.263449 h -0.26345 -0.263449 v -0.26345 -0.263449 h -0.26345 -0.263449 v -0.26345 -0.263449 h -0.263449 -0.26345 V 44.214749 43.9513 h -0.26345 -0.263449 v 1.053798 1.053798 h -0.26345 -0.263449 v 0.526899 0.526899 h 0.790348 0.790349 v 0.263449 0.26345 H 34.896309 33.842511 Z M 34.36941,45.005098 V 43.9513 h 0.263449 0.26345 v -0.26345 -0.263449 h -0.26345 -0.263449 v 0.263449 0.26345 h -0.263449 -0.26345 v 0.263449 0.26345 h -0.26345 -0.263449 v 0.790348 0.790349 h 0.526899 0.526899 z m -4.215192,-0.26345 v -0.263449 h -0.263449 -0.26345 V 44.214749 43.9513 H 29.36387 29.10042 v 0.526899 0.526899 h 0.526899 0.526899 z m 2.107596,0 v -0.263449 h 0.26345 0.263449 V 44.214749 43.9513 h 0.263449 0.26345 v -0.26345 -0.263449 h 0.263449 0.26345 v -0.26345 -0.263449 h 0.26345 0.263449 v -0.26345 -0.263449 h -0.526899 -0.526899 v -0.26345 -0.263449 h -0.790348 -0.790349 v 0.263449 0.26345 h -0.263449 -0.26345 v 0.263449 0.26345 h -0.526899 -0.526899 v 0.526899 0.526899 h 0.526899 0.526899 v 0.526899 0.526899 h 0.526899 0.526899 z M 31.208016,43.68785 v -0.263449 h 0.26345 0.263449 v -0.26345 -0.263449 h 0.263449 0.26345 v -0.26345 -0.263449 h 0.526899 0.526899 v 0.263449 0.26345 h -0.526899 -0.526899 v 0.263449 0.26345 h -0.26345 -0.263449 v 0.263449 0.26345 h -0.263449 -0.26345 z"
       id="path324-7-0" /><path
       style="fill:#aa0000;stroke-width:0.0131725"
       d="m 38.095232,44.216991 v -0.263449 h -0.263449 -0.26345 v -0.26345 -0.263449 h -0.26345 -0.263449 v -0.26345 -0.263449 h 0.263449 0.26345 v -0.26345 -0.263449 h 0.26345 0.263449 v -0.26345 -0.263449 h 0.790348 0.790349 v 0.526899 0.526899 h 0.526899 0.526899 v 0.790348 0.790349 h -1.317248 -1.317247 z m 1.580697,-1.053798 v -0.263449 h -1.053798 -1.053798 v 0.263449 0.26345 h 1.053798 1.053798 z"
       id="path266-9-92" /><path
       style="fill:#ff2a2a;stroke-width:0.0131725"
       d="m 35.987636,42.636294 v -0.790348 h -0.26345 -0.263449 v -0.790349 -0.790348 h 0.263449 0.26345 v -0.26345 -0.263449 h 0.26345 0.263449 v -0.526899 -0.526899 h 0.526899 0.526899 v 0.526899 0.526899 h 0.526899 0.526899 v 0.526899 0.526899 h -0.26345 -0.263449 v 0.263449 0.26345 h -0.263449 -0.26345 v 0.263449 0.26345 h -0.26345 -0.263449 v 0.263449 0.26345 h -0.26345 -0.263449 v 0.526899 0.526899 h -0.263449 -0.26345 z m 0.526899,-1.317247 v -0.526899 h 0.263449 0.26345 v -0.26345 -0.263449 h 0.263449 0.26345 v -0.26345 -0.263449 h -0.26345 -0.263449 v 0.263449 0.26345 h -0.26345 -0.263449 v 0.263449 0.26345 h -0.263449 -0.26345 v 0.526899 0.526899 h 0.26345 0.263449 z"
       id="path264-3-6" /><path
       style="fill:#000000;stroke-width:0.0131725"
       d="m 38.095232,46.851486 v -0.263449 h -0.263449 -0.26345 v -0.26345 -0.263449 h -0.26345 -0.263449 v -0.26345 -0.263449 h -0.26345 -0.263449 v -0.26345 -0.263449 h -0.263449 -0.26345 v -0.26345 -0.263449 h -0.26345 -0.263449 v -0.26345 -0.263449 h -0.26345 -0.263449 v -0.26345 -0.263449 h -0.263449 -0.26345 v -0.526899 -0.526899 h -0.26345 -0.263449 v -0.26345 -0.263449 h -0.263449 -0.26345 v -0.26345 -0.263449 h -0.263449 -0.26345 v -0.526899 -0.526899 h 0.26345 0.263449 v -0.26345 -0.263449 h -0.263449 -0.26345 V 39.4749 39.211451 h -0.263449 -0.26345 v -0.26345 -0.263449 h 0.26345 0.263449 v 0.263449 0.26345 h 0.26345 0.263449 v 0.263449 0.26345 h 0.26345 0.263449 v 0.263449 0.26345 h 0.263449 0.26345 v 0.526899 0.526899 h 0.26345 0.263449 v -0.526899 -0.526899 h 0.263449 0.26345 V 39.73835 39.211451 h 0.263449 0.26345 v -0.526899 -0.526899 h 0.26345 0.263449 v -0.26345 -0.263449 h 0.263449 0.26345 v -0.263449 -0.26345 h 1.053798 1.053798 v 2.107596 2.107596 h 0.526899 0.526899 v 0.263449 0.26345 h 0.263449 0.26345 v 0.263449 0.26345 h 0.263449 0.26345 v 1.053798 1.053798 h -0.26345 -0.263449 v -0.790349 -0.790348 h -0.526899 -0.526899 v 0.263449 0.26345 h -1.053798 -1.053798 v 0.263449 0.26345 h -0.26345 -0.263449 v 0.263449 0.26345 h 0.263449 0.26345 v 0.263449 0.26345 h 0.26345 0.263449 v 0.263449 0.26345 h 0.263449 0.26345 v 0.263449 0.26345 h 0.263449 0.26345 v 0.526899 0.526898 h -0.526899 -0.526899 z m -1.580697,-3.951742 v -0.526899 h 0.263449 0.26345 v -0.26345 -0.263449 h 0.263449 0.26345 v -0.26345 -0.263449 h 0.26345 0.263449 v -0.26345 -0.263449 h 0.263449 0.26345 V 40.265249 39.73835 h -0.526899 -0.526899 v -0.526899 -0.526899 h -0.526899 -0.526899 v 0.526899 0.526899 h -0.263449 -0.26345 v 0.263449 0.26345 h -0.26345 -0.263449 v 0.790348 0.790349 h 0.263449 0.26345 v 0.790348 0.790349 h 0.26345 0.263449 z m -0.526899,-1.580697 v -0.526899 h 0.26345 0.263449 v -0.26345 -0.263449 h 0.263449 0.26345 v -0.26345 -0.263449 h 0.263449 0.26345 v 0.263449 0.26345 h -0.26345 -0.263449 v 0.263449 0.26345 h -0.26345 -0.263449 v 0.526899 0.526899 h -0.263449 -0.26345 z m 1.580697,1.844146 v -0.263449 h 1.053798 1.053798 V 42.372845 41.845946 H 38.88558 38.095232 v 0.263449 0.26345 h -0.263449 -0.26345 v 0.263449 0.26345 h -0.26345 -0.263449 v 0.263449 0.26345 h 0.263449 0.26345 z m 1.053798,-5.00554 v -0.526899 h -0.526899 -0.526899 v 0.263449 0.26345 h 0.26345 0.263449 v 0.263449 0.26345 h 0.263449 0.26345 z"
       id="path262-6-6" /><path
       style="fill:#800080;stroke-width:0.0131725"
       d="M 4.5299077,59.86467 V 59.337771 H 4.0030089 3.4761101 v -0.790349 -0.790348 h 0.2634492 0.2634496 v -0.26345 -0.263449 h 0.2634497 0.2634491 v -0.26345 -0.263449 H 4.7933574 5.056807 v 0.263449 0.26345 h 0.2634492 0.2634497 v 0.263449 0.26345 h 0.2634496 0.2634492 v 1.317247 1.317248 H 5.3202562 4.5299077 Z M 5.056807,58.283973 V 57.230175 H 4.7933574 4.5299077 v 1.053798 1.053798 H 4.7933574 5.056807 Z"
       id="path328-50" /><path
       style="fill:#ff00ff;stroke-width:0.0131725"
       d="M 1.3685141,57.757074 V 57.230175 H 0.84161513 0.31471612 V 56.703276 56.176377 H 0.84161513 1.3685141 v -0.26345 -0.263449 h 0.2634495 0.2634496 v -0.26345 -0.263449 h 0.7903485 0.7903484 v 0.263449 0.26345 h 0.5268988 0.5268988 v 0.263449 0.26345 H 4.2664586 4.0030089 v 0.263449 0.26345 H 3.7395593 3.4761101 v 0.263449 0.26345 H 3.2126605 2.9492108 v 0.263449 0.26345 H 2.6857617 2.422312 v 0.263449 0.26345 H 1.8954132 1.3685141 Z M 1.8954132,56.966725 V 56.703276 H 2.1588624 2.422312 v -0.26345 -0.263449 h 0.5268988 0.5268993 v -0.26345 -0.263449 H 2.9492108 2.422312 v 0.263449 0.26345 H 2.1588624 1.8954132 v 0.263449 0.26345 H 1.6319636 1.3685141 v 0.263449 0.26345 h 0.2634495 0.2634496 z"
       id="path326-48" /><path
       style="fill:#000000;stroke-width:0.0131725"
       d="M 4.0030089,60.655018 V 60.391569 H 3.7395593 3.4761101 V 60.128119 59.86467 H 3.2126605 2.9492108 V 59.337771 58.810872 H 0.84161513 -1.2659808 v -1.053798 -1.053798 h 0.2634495 0.2634495 v -0.26345 -0.263449 h 0.26344945 0.26344951 v -0.26345 -0.263449 h 0.52689896 0.52689901 v -0.26345 -0.263449 H 1.3685141 1.8954132 V 54.859129 54.59568 H 2.422312 2.9492108 v -0.526899 -0.526899 h 0.2634497 0.2634496 v -0.26345 -0.263449 H 3.2126605 2.9492108 v -0.263449 -0.26345 H 2.6857617 2.422312 v -0.263449 -0.26345 h 0.2634497 0.2634491 v 0.26345 0.263449 h 0.2634497 0.2634496 v 0.26345 0.263449 h 0.2634492 0.2634496 v 0.263449 0.26345 h 0.2634497 0.2634491 v 0.526899 0.526899 H 5.056807 5.5837059 v 0.263449 0.26345 h 0.2634496 0.2634492 v 0.790348 0.790349 H 6.3740543 6.637504 v 0.263449 0.26345 h 0.2634491 0.2634497 v 0.263449 0.26345 h 0.2634496 0.2634492 v 0.263449 0.26345 h 0.2634497 0.2634496 v 0.263449 0.26345 h 0.2634492 0.2634496 v 0.263449 0.26345 h 0.2634497 0.2634491 v 0.526899 0.526899 H 8.7450997 8.2182009 V 60.128119 59.86467 H 7.9547513 7.6913016 V 59.60122 59.337771 H 7.4278524 7.1644028 v -0.26345 -0.263449 H 6.9009531 6.637504 v -0.26345 -0.263449 H 6.3740543 6.1106047 v -0.26345 -0.263449 H 5.8471555 5.5837059 v -0.26345 -0.263449 H 5.3202562 5.056807 v 1.053798 1.053798 H 4.7933574 4.5299077 v 0.526899 0.526899 h 0.7903485 0.7903485 v 0.263449 0.26345 H 5.056807 4.0030089 Z M 4.5299077,58.283973 V 57.230175 H 4.7933574 5.056807 v -0.26345 -0.263449 H 4.7933574 4.5299077 v 0.263449 0.26345 H 4.2664586 4.0030089 v 0.263449 0.26345 H 3.7395593 3.4761101 v 0.790348 0.790349 h 0.5268988 0.5268988 z m -4.21519158,-0.26345 v -0.263449 h -0.26344946 -0.2634495 v -0.26345 -0.263449 H -0.47563235 -0.7390818 v 0.526899 0.526899 h 0.52689896 0.52689896 z m 2.10759588,0 v -0.263449 h 0.2634497 0.2634491 v -0.26345 -0.263449 h 0.2634497 0.2634496 v -0.26345 -0.263449 h 0.2634492 0.2634496 v -0.26345 -0.263449 h 0.2634497 0.2634491 v -0.26345 -0.263449 H 4.0030089 3.4761101 v -0.26345 -0.263449 H 2.6857617 1.8954132 v 0.263449 0.26345 H 1.6319636 1.3685141 v 0.263449 0.26345 H 0.84161513 0.31471612 v 0.526899 0.526899 H 0.84161513 1.3685141 v 0.526899 0.526899 H 1.8954132 2.422312 Z M 1.3685141,56.966725 v -0.263449 h 0.2634495 0.2634496 v -0.26345 -0.263449 H 2.1588624 2.422312 v -0.26345 -0.263449 h 0.5268988 0.5268993 v 0.263449 0.26345 H 2.9492108 2.422312 v 0.263449 0.26345 H 2.1588624 1.8954132 v 0.263449 0.26345 H 1.6319636 1.3685141 Z"
       id="path324-71" /><path
       style="fill:#800080;stroke-width:0.0131725"
       d="M 23.651264,57.340289 V 57.07684 h -0.263449 -0.26345 v -0.26345 -0.263449 h -0.26345 -0.263449 v -0.26345 -0.263449 h 0.263449 0.26345 v -0.26345 -0.263449 h 0.26345 0.263449 v -0.26345 -0.263449 h 0.790348 0.790349 v 0.526899 0.526899 h 0.526899 0.526899 v 0.790348 0.790349 h -1.317248 -1.317247 z m 1.580697,-1.053798 v -0.263449 h -1.053798 -1.053798 v 0.263449 0.26345 h 1.053798 1.053798 z"
       id="path266-5-9" /><path
       style="fill:#ff00ff;stroke-width:0.0131725"
       d="m 21.543668,55.759592 v -0.790348 h -0.26345 -0.263449 v -0.790349 -0.790348 h 0.263449 0.26345 v -0.26345 -0.263449 h 0.26345 0.263449 V 52.334749 51.80785 h 0.526899 0.526899 v 0.526899 0.526899 h 0.526899 0.526899 v 0.526899 0.526899 h -0.26345 -0.263449 v 0.263449 0.26345 h -0.263449 -0.26345 v 0.263449 0.26345 h -0.26345 -0.263449 v 0.263449 0.26345 h -0.26345 -0.263449 v 0.526899 0.526899 h -0.263449 -0.26345 z m 0.526899,-1.317247 v -0.526899 h 0.263449 0.26345 v -0.26345 -0.263449 h 0.263449 0.26345 v -0.26345 -0.263449 h -0.26345 -0.263449 v 0.263449 0.26345 h -0.26345 -0.263449 v 0.263449 0.26345 h -0.263449 -0.26345 v 0.526899 0.526899 h 0.26345 0.263449 z"
       id="path264-6-0" /><path
       style="fill:#000000;stroke-width:0.0131725"
       d="m 23.651264,59.974784 v -0.263449 h -0.263449 -0.26345 v -0.26345 -0.263449 h -0.26345 -0.263449 v -0.26345 -0.263449 h -0.26345 -0.263449 v -0.26345 -0.263449 h -0.263449 -0.26345 v -0.26345 -0.263449 h -0.26345 -0.263449 v -0.26345 -0.263449 h -0.26345 -0.263449 v -0.26345 -0.263449 h -0.263449 -0.26345 v -0.526899 -0.526899 h -0.26345 -0.263449 v -0.26345 -0.263449 h -0.263449 -0.26345 v -0.26345 -0.263449 h -0.263449 -0.26345 v -0.526899 -0.526899 h 0.26345 0.263449 v -0.26345 -0.263449 h -0.263449 -0.26345 v -0.26345 -0.263449 h -0.263449 -0.26345 v -0.26345 -0.263449 h 0.26345 0.263449 v 0.263449 0.26345 h 0.26345 0.263449 v 0.263449 0.26345 h 0.26345 0.263449 v 0.263449 0.26345 h 0.263449 0.26345 v 0.526899 0.526899 h 0.26345 0.263449 v -0.526899 -0.526899 h 0.263449 0.26345 v -0.526899 -0.526899 h 0.263449 0.26345 V 51.80785 51.280951 h 0.26345 0.263449 v -0.26345 -0.263449 h 0.263449 0.26345 v -0.263449 -0.26345 h 1.053798 1.053798 v 2.107596 2.107596 h 0.526899 0.526899 v 0.263449 0.26345 h 0.263449 0.26345 v 0.263449 0.26345 h 0.263449 0.26345 v 1.053798 1.053798 h -0.26345 -0.263449 V 56.81339 56.023042 H 25.75886 25.231961 v 0.263449 0.26345 h -1.053798 -1.053798 v 0.263449 0.26345 h -0.26345 -0.263449 v 0.263449 0.26345 h 0.263449 0.26345 v 0.263449 0.26345 h 0.26345 0.263449 v 0.263449 0.26345 h 0.263449 0.26345 v 0.263449 0.26345 h 0.263449 0.26345 v 0.526899 0.526898 h -0.526899 -0.526899 z m -1.580697,-3.951742 v -0.526899 h 0.263449 0.26345 v -0.26345 -0.263449 h 0.263449 0.26345 v -0.26345 -0.263449 h 0.26345 0.263449 v -0.26345 -0.263449 h 0.263449 0.26345 V 53.388547 52.861648 H 23.651264 23.124365 V 52.334749 51.80785 h -0.526899 -0.526899 v 0.526899 0.526899 h -0.263449 -0.26345 v 0.263449 0.26345 h -0.26345 -0.263449 v 0.790348 0.790349 h 0.263449 0.26345 v 0.790348 0.790349 h 0.26345 0.263449 z m -0.526899,-1.580697 v -0.526899 h 0.26345 0.263449 v -0.26345 -0.263449 h 0.263449 0.26345 v -0.26345 -0.263449 h 0.263449 0.26345 v 0.263449 0.26345 h -0.26345 -0.263449 v 0.263449 0.26345 h -0.26345 -0.263449 v 0.526899 0.526899 h -0.263449 -0.26345 z m 1.580697,1.844146 v -0.263449 h 1.053798 1.053798 v -0.526899 -0.526899 h -0.790349 -0.790348 v 0.263449 0.26345 h -0.263449 -0.26345 v 0.263449 0.26345 h -0.26345 -0.263449 v 0.263449 0.26345 h 0.263449 0.26345 z m 1.053798,-5.00554 v -0.526899 h -0.526899 -0.526899 v 0.263449 0.26345 h 0.26345 0.263449 v 0.263449 0.26345 h 0.263449 0.26345 z"
       id="path262-2-9" /><path
       style="fill:#800080;stroke-width:0.0131725"
       d="m 34.544751,59.915163 v -0.526899 h -0.526899 -0.526899 v -0.790349 -0.790348 h 0.263449 0.26345 v -0.26345 -0.263449 h 0.26345 0.263449 v -0.26345 -0.263449 h 0.263449 0.26345 v 0.263449 0.26345 h 0.263449 0.26345 v 0.263449 0.26345 h 0.26345 0.263449 v 1.317247 1.317248 H 35.335099 34.544751 Z M 35.07165,58.334466 V 57.280668 H 34.8082 34.544751 v 1.053798 1.053798 h 0.263449 0.26345 z"
       id="path328-6-1-6" /><path
       style="fill:#ff00ff;stroke-width:0.0131725"
       d="M 31.383357,57.807567 V 57.280668 H 30.856458 30.329559 V 56.753769 56.22687 h 0.526899 0.526899 v -0.26345 -0.263449 h 0.26345 0.263449 v -0.26345 -0.263449 h 0.790349 0.790348 v 0.263449 0.26345 h 0.526899 0.526899 v 0.263449 0.26345 h -0.263449 -0.26345 v 0.263449 0.26345 h -0.26345 -0.263449 v 0.263449 0.26345 h -0.26345 -0.263449 v 0.263449 0.26345 h -0.263449 -0.26345 v 0.263449 0.26345 h -0.526899 -0.526899 z m 0.526899,-0.790349 v -0.263449 h 0.263449 0.26345 v -0.26345 -0.263449 h 0.526899 0.526899 v -0.26345 -0.263449 h -0.526899 -0.526899 v 0.263449 0.26345 h -0.26345 -0.263449 v 0.263449 0.26345 h -0.263449 -0.26345 v 0.263449 0.26345 h 0.26345 0.263449 z"
       id="path326-7-5-5" /><path
       style="fill:#000000;stroke-width:0.0131725"
       d="m 34.017852,60.705511 v -0.263449 h -0.26345 -0.263449 v -0.26345 -0.263449 h -0.26345 -0.263449 v -0.526899 -0.526899 h -2.107596 -2.107596 v -1.053798 -1.053798 h 0.26345 0.263449 v -0.26345 -0.263449 h 0.26345 0.263449 v -0.26345 -0.263449 h 0.526899 0.526899 v -0.26345 -0.263449 h 0.526899 0.526899 v -0.26345 -0.263449 h 0.526899 0.526899 v -0.526899 -0.526899 h 0.263449 0.26345 v -0.26345 -0.263449 h -0.26345 -0.263449 v -0.263449 -0.26345 h -0.263449 -0.26345 v -0.263449 -0.26345 h 0.26345 0.263449 v 0.26345 0.263449 h 0.263449 0.26345 v 0.26345 0.263449 h 0.263449 0.26345 v 0.263449 0.26345 h 0.26345 0.263449 v 0.526899 0.526899 h 0.526899 0.526899 v 0.263449 0.26345 h 0.26345 0.263449 v 0.790348 0.790349 h 0.263449 0.26345 v 0.263449 0.26345 h 0.263449 0.26345 v 0.263449 0.26345 h 0.263449 0.26345 v 0.263449 0.26345 h 0.263449 0.26345 v 0.263449 0.26345 h 0.263449 0.26345 v 0.263449 0.26345 h 0.263449 0.26345 v 0.526899 0.526899 h -0.526899 -0.526899 v -0.26345 -0.263449 h -0.26345 -0.263449 v -0.26345 -0.263449 h -0.26345 -0.263449 v -0.26345 -0.263449 h -0.26345 -0.263449 v -0.26345 -0.263449 h -0.26345 -0.263449 v -0.26345 -0.263449 h -0.263449 -0.26345 v -0.26345 -0.263449 h -0.26345 -0.263449 v 1.053798 1.053798 H 34.8082 34.544751 v 0.526899 0.526899 h 0.790348 0.790349 v 0.263449 0.26345 H 35.07165 34.017852 Z m 0.526899,-2.371045 v -1.053798 h 0.263449 0.26345 v -0.26345 -0.263449 H 34.8082 34.544751 v 0.263449 0.26345 h -0.263449 -0.26345 v 0.263449 0.26345 h -0.26345 -0.263449 v 0.790348 0.790349 h 0.526899 0.526899 z m -4.215192,-0.26345 V 57.807567 H 30.06611 29.80266 v -0.26345 -0.263449 h -0.263449 -0.26345 v 0.526899 0.526899 h 0.526899 0.526899 z m 2.107596,0 v -0.263449 h 0.26345 0.263449 v -0.26345 -0.263449 h 0.263449 0.26345 v -0.26345 -0.263449 h 0.263449 0.26345 v -0.26345 -0.263449 h 0.26345 0.263449 v -0.26345 -0.263449 h -0.526899 -0.526899 v -0.26345 -0.263449 h -0.790348 -0.790349 v 0.263449 0.26345 h -0.263449 -0.26345 v 0.263449 0.26345 h -0.526899 -0.526899 v 0.526899 0.526899 h 0.526899 0.526899 v 0.526899 0.526899 h 0.526899 0.526899 z m -1.053798,-1.053798 v -0.263449 h 0.26345 0.263449 v -0.26345 -0.263449 h 0.263449 0.26345 v -0.26345 -0.263449 h 0.526899 0.526899 v 0.263449 0.26345 h -0.526899 -0.526899 v 0.263449 0.26345 h -0.26345 -0.263449 v 0.263449 0.26345 h -0.263449 -0.26345 z"
       id="path324-5-9-6" /><path
       style="fill:#800080;stroke-width:0.0131725"
       d="m 38.270573,57.546358 v -0.263449 h -0.263449 -0.26345 v -0.26345 -0.263449 h -0.26345 -0.263449 v -0.26345 -0.263449 h 0.263449 0.26345 v -0.26345 -0.263449 h 0.26345 0.263449 v -0.26345 -0.263449 h 0.790348 0.790349 v 0.526899 0.526899 h 0.526899 0.526899 v 0.790348 0.790349 H 39.58782 38.270573 Z M 39.85127,56.49256 v -0.263449 h -1.053798 -1.053798 v 0.263449 0.26345 h 1.053798 1.053798 z"
       id="path266-5-9-9" /><path
       style="fill:#ff00ff;stroke-width:0.0131725"
       d="m 36.162977,55.965661 v -0.790348 h -0.26345 -0.263449 v -0.790349 -0.790348 h 0.263449 0.26345 v -0.26345 -0.263449 h 0.26345 0.263449 v -0.526899 -0.526899 h 0.526899 0.526899 v 0.526899 0.526899 h 0.526899 0.526899 v 0.526899 0.526899 h -0.26345 -0.263449 v 0.263449 0.26345 h -0.263449 -0.26345 v 0.263449 0.26345 h -0.26345 -0.263449 v 0.263449 0.26345 h -0.26345 -0.263449 v 0.526899 0.526899 h -0.263449 -0.26345 z m 0.526899,-1.317247 v -0.526899 h 0.263449 0.26345 v -0.26345 -0.263449 h 0.263449 0.26345 v -0.26345 -0.263449 h -0.26345 -0.263449 v 0.263449 0.26345 h -0.26345 -0.263449 v 0.263449 0.26345 h -0.263449 -0.26345 v 0.526899 0.526899 h 0.26345 0.263449 z"
       id="path264-6-0-4" /><path
       style="fill:#000000;stroke-width:0.0131725"
       d="m 38.270573,60.180853 v -0.263449 h -0.263449 -0.26345 v -0.26345 -0.263449 h -0.26345 -0.263449 v -0.26345 -0.263449 h -0.26345 -0.263449 v -0.26345 -0.263449 h -0.263449 -0.26345 v -0.26345 -0.263449 h -0.26345 -0.263449 v -0.26345 -0.263449 h -0.26345 -0.263449 V 57.019459 56.75601 H 34.84573 34.58228 v -0.526899 -0.526899 h -0.26345 -0.263449 v -0.26345 -0.263449 h -0.263449 -0.26345 v -0.26345 -0.263449 h -0.263449 -0.26345 v -0.526899 -0.526899 h 0.26345 0.263449 v -0.26345 -0.263449 h -0.263449 -0.26345 v -0.26345 -0.263449 h -0.263449 -0.26345 v -0.26345 -0.263449 h 0.26345 0.263449 v 0.263449 0.26345 h 0.26345 0.263449 v 0.263449 0.26345 h 0.26345 0.263449 v 0.263449 0.26345 h 0.263449 0.26345 v 0.526899 0.526899 h 0.26345 0.263449 v -0.526899 -0.526899 h 0.263449 0.26345 v -0.526899 -0.526899 h 0.263449 0.26345 V 52.013919 51.48702 h 0.26345 0.263449 v -0.26345 -0.263449 h 0.263449 0.26345 v -0.263449 -0.26345 h 1.053798 1.053798 v 2.107596 2.107596 h 0.526899 0.526899 v 0.263449 0.26345 h 0.263449 0.26345 v 0.263449 0.26345 h 0.263449 0.26345 v 1.053798 1.053798 h -0.26345 -0.263449 V 57.019459 56.229111 H 40.378169 39.85127 v 0.263449 0.26345 h -1.053798 -1.053798 v 0.263449 0.26345 h -0.26345 -0.263449 v 0.263449 0.26345 h 0.263449 0.26345 v 0.263449 0.26345 h 0.26345 0.263449 v 0.263449 0.26345 h 0.263449 0.26345 v 0.263449 0.26345 h 0.263449 0.26345 v 0.526899 0.526898 h -0.526899 -0.526899 z m -1.580697,-3.951742 v -0.526899 h 0.263449 0.26345 v -0.26345 -0.263449 h 0.263449 0.26345 v -0.26345 -0.263449 h 0.26345 0.263449 v -0.26345 -0.263449 h 0.263449 0.26345 v -0.526899 -0.526899 h -0.526899 -0.526899 v -0.526899 -0.526899 h -0.526899 -0.526899 v 0.526899 0.526899 h -0.263449 -0.26345 v 0.263449 0.26345 h -0.26345 -0.263449 v 0.790348 0.790349 h 0.263449 0.26345 v 0.790348 0.790349 h 0.26345 0.263449 z m -0.526899,-1.580697 v -0.526899 h 0.26345 0.263449 v -0.26345 -0.263449 h 0.263449 0.26345 v -0.26345 -0.263449 h 0.263449 0.26345 v 0.263449 0.26345 h -0.26345 -0.263449 v 0.263449 0.26345 h -0.26345 -0.263449 v 0.526899 0.526899 h -0.263449 -0.26345 z m 1.580697,1.844146 v -0.263449 h 1.053798 1.053798 v -0.526899 -0.526899 h -0.790349 -0.790348 v 0.263449 0.26345 h -0.263449 -0.26345 v 0.263449 0.26345 h -0.26345 -0.263449 v 0.263449 0.26345 h 0.263449 0.26345 z m 1.053798,-5.00554 v -0.526899 h -0.526899 -0.526899 v 0.263449 0.26345 h 0.26345 0.263449 v 0.263449 0.26345 h 0.263449 0.26345 z"
       id="path262-2-9-8" /></g></svg>
