<?xml version="1.0" encoding="UTF-8" standalone="no"?>
<!-- Created with Inkscape (http://www.inkscape.org/) -->

<svg
   width="21.559584mm"
   height="13.229167mm"
   viewBox="0 0 21.559583 13.229167"
   version="1.1"
   id="svg351"
   xml:space="preserve"
   inkscape:version="1.2.2 (b0a8486541, 2022-12-01)"
   sodipodi:docname="car.svg"
   xmlns:inkscape="http://www.inkscape.org/namespaces/inkscape"
   xmlns:sodipodi="http://sodipodi.sourceforge.net/DTD/sodipodi-0.dtd"
   xmlns="http://www.w3.org/2000/svg"
   xmlns:svg="http://www.w3.org/2000/svg"><sodipodi:namedview
     id="namedview353"
     pagecolor="#ffffff"
     bordercolor="#000000"
     borderopacity="0.25"
     inkscape:showpageshadow="2"
     inkscape:pageopacity="0.0"
     inkscape:pagecheckerboard="0"
     inkscape:deskcolor="#d1d1d1"
     inkscape:document-units="mm"
     showgrid="false"
     inkscape:zoom="1.1410204"
     inkscape:cx="132.33769"
     inkscape:cy="156.00072"
     inkscape:window-width="1920"
     inkscape:window-height="1011"
     inkscape:window-x="0"
     inkscape:window-y="0"
     inkscape:window-maximized="1"
     inkscape:current-layer="layer1" /><defs
     id="defs348" /><g
     inkscape:label="Calque 1"
     inkscape:groupmode="layer"
     id="layer1"
     transform="translate(-49.453088,-112.35509)"><g
       id="g2277"
       transform="matrix(0.16011265,0,0,0.16011265,41.535023,94.365617)"><path
         style="fill:#000000;stroke-width:0.264583"
         d="m 84.510378,194.52958 c -4.151445,-1.09526 -7.958015,-4.15795 -9.807953,-7.89128 -0.584183,-1.17893 -1.203462,-2.88709 -1.376177,-3.79591 l -0.314026,-1.6524 h -7.467066 c -4.515517,0 -8.021275,-0.11747 -8.86915,-0.29718 -2.906303,-0.61602 -5.044139,-2.27692 -6.351911,-4.93487 l -0.871007,-1.77027 0.01202,-12.70457 c 0.0106,-11.20299 0.06406,-12.83782 0.452309,-13.83195 0.673505,-1.72454 1.938881,-3.40149 3.244462,-4.29976 2.226999,-1.53221 2.856467,-1.64642 10.049543,-1.82329 7.16331,-0.17614 7.40189,-0.22362 8.961786,-1.78351 1.050234,-1.05024 1.293696,-1.59041 4.931691,-10.9421 2.273197,-5.84339 3.598712,-8.87571 4.43493,-10.14557 1.853731,-2.81504 4.917741,-4.94503 8.429185,-5.85964 2.242825,-0.58418 42.608236,-0.59194 44.800206,-0.009 3.36237,0.89481 6.42437,3.01964 8.32204,5.77497 0.64522,0.93683 2.27461,4.70634 4.65467,10.76835 4.72845,12.04338 4.57802,11.87368 11.01249,12.4233 7.05414,0.60256 13.03743,3.37305 17.60145,8.15016 3.53631,3.70141 5.74477,7.61077 7.03021,12.44467 0.60264,2.26623 0.686,3.11208 0.7094,7.1982 0.0255,4.46213 0.002,4.68347 -0.6617,6.09749 -1.30934,2.79154 -3.38151,4.50099 -6.28423,5.18421 -1.01937,0.23993 -3.48962,0.35302 -7.77304,0.35584 l -6.27881,0.004 -0.16043,0.7276 c -0.86583,3.92691 -2.00463,6.16008 -4.34661,8.52362 -3.73856,3.77296 -9.40613,5.3853 -14.4313,4.1055 -5.52619,-1.40741 -10.2975,-6.35561 -11.28682,-11.70529 l -0.30622,-1.65587 -14.54794,0.0684 -14.54795,0.0684 -0.32901,1.5875 c -1.17104,5.65026 -5.703189,10.32294 -11.290136,11.64019 -2.080061,0.49043 -5.444106,0.48108 -7.344904,-0.0204 z"
         id="path484" /><path
         style="fill:#a00000;fill-opacity:1;stroke-width:0.264583"
         d="m 73.133295,177.59862 c 0,-1.00611 1.217722,-4.45412 2.027211,-5.7401 2.279899,-3.62192 5.540486,-6.02584 9.410948,-6.93838 8.426815,-1.9868 16.842906,3.28727 18.573956,11.63964 l 0.32902,1.5875 14.54795,0.0684 14.54794,0.0684 0.30421,-1.63581 c 1.01219,-5.44277 5.68225,-10.293 11.28883,-11.72437 5.0295,-1.28403 10.65514,0.31146 14.43035,4.09262 2.32537,2.32904 3.47812,4.59221 4.34756,8.53552 l 0.16043,0.7276 6.67569,-0.003 c 6.447,-0.002 6.72138,-0.0239 8.00942,-0.62365 1.42618,-0.66412 2.62588,-1.88763 3.20428,-3.26787 0.44022,-1.05051 0.48565,-7.09645 0.0712,-9.47633 l -0.28557,-1.63982 -1.63266,-0.16996 c -0.89797,-0.0935 -2.25062,-0.4719 -3.00588,-0.84095 -1.81594,-0.88733 -3.86933,-3.15205 -4.48268,-4.94401 -0.63458,-1.85399 -0.63025,-4.47739 0.0101,-6.13848 l 0.50377,-1.30678 -0.90087,-0.76322 c -1.35379,-1.14688 -5.91475,-3.28949 -8.3092,-3.90338 -1.16417,-0.29847 -3.24775,-0.60866 -4.6302,-0.68932 -4.10007,-0.2392 -6.21712,-1.03457 -8.11285,-3.04797 -1.18422,-1.25773 -1.54565,-2.04983 -4.99321,-10.94291 -1.69241,-4.36562 -3.44025,-8.62056 -3.8841,-9.45542 -1.50497,-2.83079 -4.71811,-5.10818 -8.11637,-5.75264 -1.91092,-0.3624 -39.923296,-0.36611 -41.863089,-0.004 -2.992963,0.55857 -6.069581,2.57391 -7.621592,4.9925 -0.459878,0.71666 -2.384814,5.26882 -4.277638,10.1159 -1.892821,4.84708 -3.6748,9.19036 -3.959949,9.65175 -0.773903,1.2522 -2.773429,2.99277 -4.172641,3.63226 -1.129091,0.51603 -1.826183,0.5775 -7.98398,0.70402 l -6.746874,0.13863 -1.253515,0.73685 c -1.067824,0.62769 -2.582944,2.30687 -2.582944,2.86263 0,0.0931 0.448048,0.24099 0.995661,0.32856 1.632538,0.26105 3.271969,1.48646 4.150915,3.10264 0.696303,1.28034 0.782337,1.69409 0.79375,3.81723 0.01622,3.01784 -0.512065,4.49669 -2.108239,5.9017 -1.118552,0.98459 -2.634352,1.63893 -3.796638,1.63893 -0.557495,0 -0.564615,0.0663 -0.564615,5.25935 0,5.69572 0.120315,6.33513 1.500747,7.97568 0.399622,0.47493 1.326765,1.14298 2.060315,1.48457 1.306548,0.6084 1.496844,0.62111 9.337375,0.62365 l 8.003646,0.003 z"
         id="path543" /><path
         style="fill:#000000;stroke-width:0.264583"
         d="m 113.98709,154.59936 c -0.40148,-0.61274 -0.40148,-0.71017 0,-1.32291 l 0.43341,-0.66146 h 5.40855 c 5.07648,0 5.42536,0.0314 5.68244,0.51177 0.38417,0.71783 0.34146,1.23494 -0.14188,1.71829 -0.35013,0.35012 -1.24734,0.41577 -5.68245,0.41577 h -5.26666 z"
         id="path545" /><path
         style="fill:#000000;stroke-width:0.264583"
         d="m 145.3334,187.43929 c -2.3878,-0.85328 -4.39665,-2.76714 -5.11387,-4.87207 -0.53757,-1.57769 -0.52333,-4.12835 0.0322,-5.76187 0.59677,-1.75486 2.90601,-4.04647 4.71596,-4.67996 3.9607,-1.38625 8.34612,0.4085 10.19901,4.17399 0.52485,1.06663 0.64891,1.72339 0.64891,3.4354 0,2.54253 -0.66453,4.13864 -2.44253,5.86666 -1.99809,1.94191 -5.50504,2.7436 -8.03966,1.83785 z"
         id="path541" /><path
         style="fill:#007700;fill-opacity:1;stroke-width:0.264583"
         d="m 150.01231,192.01574 c 3.92531,-0.71697 7.28153,-3.32711 9.04038,-7.03074 0.86202,-1.81518 0.98949,-2.3482 1.08526,-4.53791 0.13374,-3.0578 -0.39461,-5.23903 -1.79317,-7.40288 -1.94193,-3.00454 -5.08701,-5.0444 -8.69659,-5.64051 -7.28178,-1.20256 -14.33781,4.8659 -14.33781,12.33108 0,5.6665 4.28644,10.9564 9.85908,12.1671 2.08126,0.45217 2.8869,0.47111 4.84285,0.11386 z"
         id="path539" /><path
         style="fill:#000000;stroke-width:0.264583"
         d="m 86.097878,187.55715 c -3.579233,-1.0927 -5.909373,-4.1799 -5.904116,-7.82237 0.0036,-2.50653 0.768337,-4.23596 2.622301,-5.93037 2.342192,-2.14063 5.406289,-2.72303 8.411223,-1.59874 4.128468,1.54466 6.236062,6.68631 4.41697,10.77558 -0.832459,1.87133 -3.03888,3.88373 -4.846873,4.42064 -1.427348,0.42388 -3.586022,0.4952 -4.699505,0.15526 z"
         id="path537" /><path
         style="fill:#00a200;fill-opacity:1;stroke-width:0.264583"
         d="m 92.223244,191.54075 c 3.882874,-1.33653 6.724819,-4.31336 7.941226,-8.31813 0.45163,-1.48688 0.53062,-2.28373 0.42554,-4.29273 -0.11193,-2.13978 -0.25687,-2.73611 -1.092945,-4.49664 -2.779956,-5.85381 -9.508529,-8.64061 -15.485816,-6.41384 -8.577801,3.19557 -11.031468,13.9433 -4.659743,20.41093 3.355742,3.40626 8.44174,4.63527 12.871738,3.11041 z"
         id="path535" /><path
         style="fill:#1b00f1;fill-opacity:1;stroke-width:0.264583"
         d="m 116.69027,148.52217 c -1.52198,-0.54251 -2.76535,-1.88588 -3.23236,-3.49235 -0.3343,-1.14993 -0.38672,-3.16599 -0.32001,-12.30697 0.0787,-10.78302 0.088,-10.94707 0.68031,-12.05595 0.3303,-0.61831 1.09525,-1.45174 1.69988,-1.85209 l 1.09935,-0.7279 8.1174,-0.0768 c 7.67015,-0.0726 8.19819,-0.0466 9.58382,0.47184 1.59821,0.59797 3.56384,2.17014 4.39534,3.51553 0.28979,0.4689 2.07081,4.78147 3.95783,9.5835 1.88702,4.80203 3.73993,9.3858 4.11758,10.18616 0.37765,0.80037 0.68713,1.69334 0.68774,1.98438 0.004,2.05326 -1.6733,4.33665 -3.57378,4.86426 -1.67076,0.46384 -25.88286,0.38057 -27.2131,-0.0936 z"
         id="path549" /><path
         style="fill:#1b00f1;fill-opacity:1;stroke-width:0.264583"
         d="m 80.597564,148.61217 c -1.277747,-0.3685 -2.826396,-2.04081 -3.176059,-3.42968 -0.326297,-1.29606 -0.101898,-2.76815 0.580785,-3.81005 0.233259,-0.356 1.986602,-4.66933 3.896317,-9.58517 3.607676,-9.28662 4.328509,-10.68391 6.279393,-12.17227 1.992709,-1.52027 2.966667,-1.66043 11.537878,-1.66043 7.461222,0 7.737792,0.0185 8.878132,0.59531 0.68778,0.34787 1.50839,1.07202 1.97429,1.7422 l 0.79729,1.14689 0.077,11.42026 c 0.0866,12.84144 0.0836,12.86605 -1.79357,14.56196 -0.56328,0.50889 -1.47905,1.05157 -2.03506,1.20597 -1.28337,0.35637 -25.775861,0.34278 -27.016436,-0.015 z"
         id="path547" /></g></g></svg>
